<svg width="152" height="24" viewBox="0 0 152 24" fill="none" xmlns="http://www.w3.org/2000/svg">
<path fill-rule="evenodd" clip-rule="evenodd" d="M17 2H14C11.2386 2 9 4.23858 9 7V10H6V14H9V22H13V14H16L17 10H13V7C13 6.44772 13.4477 6 14 6H17V2Z" stroke="white" stroke-width="2" stroke-linecap="round" stroke-linejoin="round"/>
<path fill-rule="evenodd" clip-rule="evenodd" d="M87 3.00001C86.0424 3.67549 84.9821 4.19212 83.86 4.53001C82.6264 3.11155 80.6384 2.61412 78.8821 3.28446C77.1258 3.9548 75.9748 5.65031 76 7.53001V8.53001C72.4307 8.62256 69.052 6.92198 67 4.00001C67 4.00001 63 13 72 17C69.9405 18.398 67.4872 19.0989 65 19C74 24 85 19 85 7.50001C84.9991 7.22146 84.9723 6.9436 84.92 6.67001C85.9406 5.6635 86.6608 4.39272 87 3.00001Z" stroke="white" stroke-width="2" stroke-linecap="round" stroke-linejoin="round"/>
<path fill-rule="evenodd" clip-rule="evenodd" d="M130 7C130 4.23858 132.239 2 135 2H145C147.761 2 150 4.23858 150 7V17C150 19.7614 147.761 22 145 22H135C132.239 22 130 19.7614 130 17V7Z" stroke="white" stroke-width="2" stroke-linecap="round" stroke-linejoin="round"/>
<path fill-rule="evenodd" clip-rule="evenodd" d="M144 11.37C144.253 13.077 143.383 14.7538 141.842 15.5297C140.3 16.3055 138.435 16.0054 137.215 14.7852C135.995 13.5649 135.695 11.6998 136.47 10.1584C137.246 8.61697 138.923 7.74687 140.63 7.99999C142.373 8.25846 143.742 9.62702 144 11.37Z" stroke="white" stroke-width="2" stroke-linecap="round" stroke-linejoin="round"/>
</svg>
