<svg width="233" height="50" viewBox="0 0 233 50" fill="none" xmlns="http://www.w3.org/2000/svg">
<rect width="232.78" height="50" fill="#F6F6F6"/>
<path d="M49.9349 31.0955C49.8637 31.293 49.7948 31.5051 49.7155 31.7135C49.0589 33.4619 48.062 35.0142 46.8525 36.4368C46.6191 36.7137 46.3471 36.9644 46.0662 37.1969C45.5111 37.6589 44.8722 37.9381 44.1333 37.9636C43.5782 37.9811 43.0453 37.8819 42.5317 37.6764C42.1597 37.527 41.7935 37.3601 41.4163 37.2253C40.1919 36.788 38.9743 36.8456 37.7699 37.3135C37.3356 37.4826 36.9072 37.6691 36.4648 37.8156C35.9519 37.9847 35.4198 38.0532 34.878 37.9526C34.4052 37.8659 33.9916 37.6495 33.6077 37.3703C33.1312 37.0234 32.731 36.6007 32.3567 36.1533C30.5846 34.0281 29.3951 31.6254 28.8207 28.934C28.5732 27.7767 28.4546 26.6099 28.5272 25.4271C28.6125 24.0089 28.9475 22.6584 29.7182 21.4414C30.6854 19.9116 32.0499 18.9096 33.8449 18.4964C34.9247 18.2464 35.9749 18.3484 37.0043 18.7383C37.5461 18.9424 38.0893 19.1442 38.6333 19.3447C39.1343 19.5298 39.6331 19.5298 40.1349 19.341C40.69 19.1326 41.2458 18.9249 41.8032 18.7215C42.3746 18.5168 42.9556 18.3491 43.5619 18.3018C44.469 18.2296 45.3539 18.3455 46.2151 18.629C47.4358 19.0306 48.4289 19.7411 49.1789 20.776C49.1989 20.8044 49.2212 20.8357 49.236 20.8583C47.3446 22.1548 46.2678 23.8675 46.4241 26.1865C46.582 28.5069 47.8523 30.0767 49.9349 31.0955ZM39.3256 18.0146C39.8836 18.0292 40.4202 17.9235 40.9368 17.7217C43.2928 16.8019 44.5246 14.351 44.4876 12.4766C44.4846 12.3258 44.4742 12.1749 44.4675 12C44.2252 12.0357 44.0043 12.0525 43.7924 12.1049C42.0722 12.5196 40.7485 13.4634 39.8784 14.9916C39.3693 15.8866 39.0862 16.8369 39.1729 17.8754C39.1788 17.9855 39.2196 18.0132 39.3256 18.0146Z" fill="black"/>
<path d="M71.0457 30.09C70.2657 30.09 69.5157 29.965 68.7957 29.715C68.0857 29.465 67.5357 29.135 67.1457 28.725L67.5807 27.87C67.9607 28.25 68.4657 28.56 69.0957 28.8C69.7257 29.03 70.3757 29.145 71.0457 29.145C71.9857 29.145 72.6907 28.975 73.1607 28.635C73.6307 28.285 73.8657 27.835 73.8657 27.285C73.8657 26.865 73.7357 26.53 73.4757 26.28C73.2257 26.03 72.9157 25.84 72.5457 25.71C72.1757 25.57 71.6607 25.42 71.0007 25.26C70.2107 25.06 69.5807 24.87 69.1107 24.69C68.6407 24.5 68.2357 24.215 67.8957 23.835C67.5657 23.455 67.4007 22.94 67.4007 22.29C67.4007 21.76 67.5407 21.28 67.8207 20.85C68.1007 20.41 68.5307 20.06 69.1107 19.8C69.6907 19.54 70.4107 19.41 71.2707 19.41C71.8707 19.41 72.4557 19.495 73.0257 19.665C73.6057 19.825 74.1057 20.05 74.5257 20.34L74.1507 21.225C73.7107 20.935 73.2407 20.72 72.7407 20.58C72.2407 20.43 71.7507 20.355 71.2707 20.355C70.3507 20.355 69.6557 20.535 69.1857 20.895C68.7257 21.245 68.4957 21.7 68.4957 22.26C68.4957 22.68 68.6207 23.02 68.8707 23.28C69.1307 23.53 69.4507 23.725 69.8307 23.865C70.2207 23.995 70.7407 24.14 71.3907 24.3C72.1607 24.49 72.7807 24.68 73.2507 24.87C73.7307 25.05 74.1357 25.33 74.4657 25.71C74.7957 26.08 74.9607 26.585 74.9607 27.225C74.9607 27.755 74.8157 28.24 74.5257 28.68C74.2457 29.11 73.8107 29.455 73.2207 29.715C72.6307 29.965 71.9057 30.09 71.0457 30.09ZM77.1542 22.11H78.2192V30H77.1542V22.11ZM77.6942 20.385C77.4742 20.385 77.2892 20.31 77.1392 20.16C76.9892 20.01 76.9142 19.83 76.9142 19.62C76.9142 19.42 76.9892 19.245 77.1392 19.095C77.2892 18.945 77.4742 18.87 77.6942 18.87C77.9142 18.87 78.0992 18.945 78.2492 19.095C78.3992 19.235 78.4742 19.405 78.4742 19.605C78.4742 19.825 78.3992 20.01 78.2492 20.16C78.0992 20.31 77.9142 20.385 77.6942 20.385ZM88.4875 22.11V29.04C88.4875 30.38 88.1575 31.37 87.4975 32.01C86.8475 32.66 85.8625 32.985 84.5425 32.985C83.8125 32.985 83.1175 32.875 82.4575 32.655C81.8075 32.445 81.2775 32.15 80.8675 31.77L81.4075 30.96C81.7875 31.3 82.2475 31.565 82.7875 31.755C83.3375 31.945 83.9125 32.04 84.5125 32.04C85.5125 32.04 86.2475 31.805 86.7175 31.335C87.1875 30.875 87.4225 30.155 87.4225 29.175V28.17C87.0925 28.67 86.6575 29.05 86.1175 29.31C85.5875 29.57 84.9975 29.7 84.3475 29.7C83.6075 29.7 82.9325 29.54 82.3225 29.22C81.7225 28.89 81.2475 28.435 80.8975 27.855C80.5575 27.265 80.3875 26.6 80.3875 25.86C80.3875 25.12 80.5575 24.46 80.8975 23.88C81.2475 23.3 81.7225 22.85 82.3225 22.53C82.9225 22.21 83.5975 22.05 84.3475 22.05C85.0175 22.05 85.6225 22.185 86.1625 22.455C86.7025 22.725 87.1375 23.115 87.4675 23.625V22.11H88.4875ZM84.4525 28.755C85.0225 28.755 85.5375 28.635 85.9975 28.395C86.4575 28.145 86.8125 27.8 87.0625 27.36C87.3225 26.92 87.4525 26.42 87.4525 25.86C87.4525 25.3 87.3225 24.805 87.0625 24.375C86.8125 23.935 86.4575 23.595 85.9975 23.355C85.5475 23.105 85.0325 22.98 84.4525 22.98C83.8825 22.98 83.3675 23.1 82.9075 23.34C82.4575 23.58 82.1025 23.92 81.8425 24.36C81.5925 24.8 81.4675 25.3 81.4675 25.86C81.4675 26.42 81.5925 26.92 81.8425 27.36C82.1025 27.8 82.4575 28.145 82.9075 28.395C83.3675 28.635 83.8825 28.755 84.4525 28.755ZM95.4857 22.05C96.4757 22.05 97.2607 22.34 97.8407 22.92C98.4307 23.49 98.7257 24.325 98.7257 25.425V30H97.6607V25.53C97.6607 24.71 97.4557 24.085 97.0457 23.655C96.6357 23.225 96.0507 23.01 95.2907 23.01C94.4407 23.01 93.7657 23.265 93.2657 23.775C92.7757 24.275 92.5307 24.97 92.5307 25.86V30H91.4657V22.11H92.4857V23.565C92.7757 23.085 93.1757 22.715 93.6857 22.455C94.2057 22.185 94.8057 22.05 95.4857 22.05ZM105.543 22.11H106.608V30H105.543V22.11ZM106.083 20.385C105.863 20.385 105.678 20.31 105.528 20.16C105.378 20.01 105.303 19.83 105.303 19.62C105.303 19.42 105.378 19.245 105.528 19.095C105.678 18.945 105.863 18.87 106.083 18.87C106.303 18.87 106.488 18.945 106.638 19.095C106.788 19.235 106.863 19.405 106.863 19.605C106.863 19.825 106.788 20.01 106.638 20.16C106.488 20.31 106.303 20.385 106.083 20.385ZM113.591 22.05C114.581 22.05 115.366 22.34 115.946 22.92C116.536 23.49 116.831 24.325 116.831 25.425V30H115.766V25.53C115.766 24.71 115.561 24.085 115.151 23.655C114.741 23.225 114.156 23.01 113.396 23.01C112.546 23.01 111.871 23.265 111.371 23.775C110.881 24.275 110.636 24.97 110.636 25.86V30H109.571V22.11H110.591V23.565C110.881 23.085 111.281 22.715 111.791 22.455C112.311 22.185 112.911 22.05 113.591 22.05ZM135.228 22.11L132.243 30H131.238L128.748 23.535L126.258 30H125.253L122.283 22.11H123.303L125.778 28.815L128.313 22.11H129.228L131.748 28.815L134.253 22.11H135.228ZM136.832 22.11H137.897V30H136.832V22.11ZM137.372 20.385C137.152 20.385 136.967 20.31 136.817 20.16C136.667 20.01 136.592 19.83 136.592 19.62C136.592 19.42 136.667 19.245 136.817 19.095C136.967 18.945 137.152 18.87 137.372 18.87C137.592 18.87 137.777 18.945 137.927 19.095C138.077 19.235 138.152 19.405 138.152 19.605C138.152 19.825 138.077 20.01 137.927 20.16C137.777 20.31 137.592 20.385 137.372 20.385ZM145.015 29.52C144.815 29.7 144.565 29.84 144.265 29.94C143.975 30.03 143.67 30.075 143.35 30.075C142.61 30.075 142.04 29.875 141.64 29.475C141.24 29.075 141.04 28.51 141.04 27.78V23.01H139.63V22.11H141.04V20.385H142.105V22.11H144.505V23.01H142.105V27.72C142.105 28.19 142.22 28.55 142.45 28.8C142.69 29.04 143.03 29.16 143.47 29.16C143.69 29.16 143.9 29.125 144.1 29.055C144.31 28.985 144.49 28.885 144.64 28.755L145.015 29.52ZM150.974 22.05C151.964 22.05 152.749 22.34 153.329 22.92C153.919 23.49 154.214 24.325 154.214 25.425V30H153.149V25.53C153.149 24.71 152.944 24.085 152.534 23.655C152.124 23.225 151.539 23.01 150.779 23.01C149.929 23.01 149.254 23.265 148.754 23.775C148.264 24.275 148.019 24.97 148.019 25.86V30H146.954V18.87H148.019V23.49C148.309 23.03 148.709 22.675 149.219 22.425C149.729 22.175 150.314 22.05 150.974 22.05ZM167.841 27.195H161.991L160.731 30H159.576L164.376 19.5H165.471L170.271 30H169.101L167.841 27.195ZM167.436 26.295L164.916 20.655L162.396 26.295H167.436ZM175.848 22.05C176.588 22.05 177.258 22.22 177.858 22.56C178.458 22.89 178.928 23.36 179.268 23.97C179.608 24.58 179.778 25.275 179.778 26.055C179.778 26.845 179.608 27.545 179.268 28.155C178.928 28.765 178.458 29.24 177.858 29.58C177.268 29.91 176.598 30.075 175.848 30.075C175.208 30.075 174.628 29.945 174.108 29.685C173.598 29.415 173.178 29.025 172.848 28.515V32.91H171.783V22.11H172.803V23.67C173.123 23.15 173.543 22.75 174.063 22.47C174.593 22.19 175.188 22.05 175.848 22.05ZM175.773 29.13C176.323 29.13 176.823 29.005 177.273 28.755C177.723 28.495 178.073 28.13 178.323 27.66C178.583 27.19 178.713 26.655 178.713 26.055C178.713 25.455 178.583 24.925 178.323 24.465C178.073 23.995 177.723 23.63 177.273 23.37C176.823 23.11 176.323 22.98 175.773 22.98C175.213 22.98 174.708 23.11 174.258 23.37C173.818 23.63 173.468 23.995 173.208 24.465C172.958 24.925 172.833 25.455 172.833 26.055C172.833 26.655 172.958 27.19 173.208 27.66C173.468 28.13 173.818 28.495 174.258 28.755C174.708 29.005 175.213 29.13 175.773 29.13ZM186.014 22.05C186.754 22.05 187.424 22.22 188.024 22.56C188.624 22.89 189.094 23.36 189.434 23.97C189.774 24.58 189.944 25.275 189.944 26.055C189.944 26.845 189.774 27.545 189.434 28.155C189.094 28.765 188.624 29.24 188.024 29.58C187.434 29.91 186.764 30.075 186.014 30.075C185.374 30.075 184.794 29.945 184.274 29.685C183.764 29.415 183.344 29.025 183.014 28.515V32.91H181.949V22.11H182.969V23.67C183.289 23.15 183.709 22.75 184.229 22.47C184.759 22.19 185.354 22.05 186.014 22.05ZM185.939 29.13C186.489 29.13 186.989 29.005 187.439 28.755C187.889 28.495 188.239 28.13 188.489 27.66C188.749 27.19 188.879 26.655 188.879 26.055C188.879 25.455 188.749 24.925 188.489 24.465C188.239 23.995 187.889 23.63 187.439 23.37C186.989 23.11 186.489 22.98 185.939 22.98C185.379 22.98 184.874 23.11 184.424 23.37C183.984 23.63 183.634 23.995 183.374 24.465C183.124 24.925 182.999 25.455 182.999 26.055C182.999 26.655 183.124 27.19 183.374 27.66C183.634 28.13 183.984 28.495 184.424 28.755C184.874 29.005 185.379 29.13 185.939 29.13ZM192.115 18.87H193.18V30H192.115V18.87ZM203.013 26.385H196.413C196.473 27.205 196.788 27.87 197.358 28.38C197.928 28.88 198.648 29.13 199.518 29.13C200.008 29.13 200.458 29.045 200.868 28.875C201.278 28.695 201.633 28.435 201.933 28.095L202.533 28.785C202.183 29.205 201.743 29.525 201.213 29.745C200.693 29.965 200.118 30.075 199.488 30.075C198.678 30.075 197.958 29.905 197.328 29.565C196.708 29.215 196.223 28.735 195.873 28.125C195.523 27.515 195.348 26.825 195.348 26.055C195.348 25.285 195.513 24.595 195.843 23.985C196.183 23.375 196.643 22.9 197.223 22.56C197.813 22.22 198.473 22.05 199.203 22.05C199.933 22.05 200.588 22.22 201.168 22.56C201.748 22.9 202.203 23.375 202.533 23.985C202.863 24.585 203.028 25.275 203.028 26.055L203.013 26.385ZM199.203 22.965C198.443 22.965 197.803 23.21 197.283 23.7C196.773 24.18 196.483 24.81 196.413 25.59H202.008C201.938 24.81 201.643 24.18 201.123 23.7C200.613 23.21 199.973 22.965 199.203 22.965Z" fill="black"/>
</svg>
