<svg width="337" height="50" viewBox="0 0 337 50" fill="none" xmlns="http://www.w3.org/2000/svg">
<rect width="336.78" height="50" fill="#F6F6F6"/>
<path d="M100.935 31.0955C100.864 31.293 100.795 31.5051 100.716 31.7135C100.059 33.4619 99.062 35.0142 97.8525 36.4368C97.6191 36.7137 97.3471 36.9644 97.0662 37.1969C96.5111 37.6589 95.8722 37.9381 95.1333 37.9636C94.5782 37.9811 94.0453 37.8819 93.5317 37.6764C93.1597 37.527 92.7935 37.3601 92.4163 37.2253C91.1919 36.788 89.9743 36.8456 88.7699 37.3135C88.3356 37.4826 87.9072 37.6691 87.4648 37.8156C86.9519 37.9847 86.4198 38.0532 85.878 37.9526C85.4052 37.8659 84.9916 37.6495 84.6077 37.3703C84.1312 37.0234 83.731 36.6007 83.3567 36.1533C81.5846 34.0281 80.3951 31.6254 79.8207 28.934C79.5732 27.7767 79.4546 26.6099 79.5272 25.4271C79.6125 24.0089 79.9475 22.6584 80.7182 21.4414C81.6854 19.9116 83.0499 18.9096 84.8449 18.4964C85.9247 18.2464 86.9749 18.3484 88.0043 18.7383C88.5461 18.9424 89.0893 19.1442 89.6333 19.3447C90.1343 19.5298 90.6331 19.5298 91.1349 19.341C91.69 19.1326 92.2458 18.9249 92.8032 18.7215C93.3746 18.5168 93.9556 18.3491 94.5619 18.3018C95.469 18.2296 96.3539 18.3455 97.2151 18.629C98.4358 19.0306 99.4289 19.7411 100.179 20.776C100.199 20.8044 100.221 20.8357 100.236 20.8583C98.3446 22.1548 97.2678 23.8675 97.4241 26.1865C97.582 28.5069 98.8523 30.0767 100.935 31.0955ZM90.3256 18.0146C90.8836 18.0292 91.4202 17.9235 91.9368 17.7217C94.2928 16.8019 95.5246 14.351 95.4876 12.4766C95.4846 12.3258 95.4742 12.1749 95.4675 12C95.2252 12.0357 95.0043 12.0525 94.7924 12.1049C93.0722 12.5196 91.7485 13.4634 90.8784 14.9916C90.3693 15.8866 90.0862 16.8369 90.1729 17.8754C90.1788 17.9855 90.2196 18.0132 90.3256 18.0146Z" fill="black"/>
<path d="M124.046 30.09C123.266 30.09 122.516 29.965 121.796 29.715C121.086 29.465 120.536 29.135 120.146 28.725L120.581 27.87C120.961 28.25 121.466 28.56 122.096 28.8C122.726 29.03 123.376 29.145 124.046 29.145C124.986 29.145 125.691 28.975 126.161 28.635C126.631 28.285 126.866 27.835 126.866 27.285C126.866 26.865 126.736 26.53 126.476 26.28C126.226 26.03 125.916 25.84 125.546 25.71C125.176 25.57 124.661 25.42 124.001 25.26C123.211 25.06 122.581 24.87 122.111 24.69C121.641 24.5 121.236 24.215 120.896 23.835C120.566 23.455 120.401 22.94 120.401 22.29C120.401 21.76 120.541 21.28 120.821 20.85C121.101 20.41 121.531 20.06 122.111 19.8C122.691 19.54 123.411 19.41 124.271 19.41C124.871 19.41 125.456 19.495 126.026 19.665C126.606 19.825 127.106 20.05 127.526 20.34L127.151 21.225C126.711 20.935 126.241 20.72 125.741 20.58C125.241 20.43 124.751 20.355 124.271 20.355C123.351 20.355 122.656 20.535 122.186 20.895C121.726 21.245 121.496 21.7 121.496 22.26C121.496 22.68 121.621 23.02 121.871 23.28C122.131 23.53 122.451 23.725 122.831 23.865C123.221 23.995 123.741 24.14 124.391 24.3C125.161 24.49 125.781 24.68 126.251 24.87C126.731 25.05 127.136 25.33 127.466 25.71C127.796 26.08 127.961 26.585 127.961 27.225C127.961 27.755 127.816 28.24 127.526 28.68C127.246 29.11 126.811 29.455 126.221 29.715C125.631 29.965 124.906 30.09 124.046 30.09ZM130.154 22.11H131.219V30H130.154V22.11ZM130.694 20.385C130.474 20.385 130.289 20.31 130.139 20.16C129.989 20.01 129.914 19.83 129.914 19.62C129.914 19.42 129.989 19.245 130.139 19.095C130.289 18.945 130.474 18.87 130.694 18.87C130.914 18.87 131.099 18.945 131.249 19.095C131.399 19.235 131.474 19.405 131.474 19.605C131.474 19.825 131.399 20.01 131.249 20.16C131.099 20.31 130.914 20.385 130.694 20.385ZM141.488 22.11V29.04C141.488 30.38 141.158 31.37 140.498 32.01C139.848 32.66 138.863 32.985 137.543 32.985C136.813 32.985 136.118 32.875 135.458 32.655C134.808 32.445 134.278 32.15 133.868 31.77L134.408 30.96C134.788 31.3 135.248 31.565 135.788 31.755C136.338 31.945 136.913 32.04 137.513 32.04C138.513 32.04 139.248 31.805 139.718 31.335C140.188 30.875 140.423 30.155 140.423 29.175V28.17C140.093 28.67 139.658 29.05 139.118 29.31C138.588 29.57 137.998 29.7 137.348 29.7C136.608 29.7 135.933 29.54 135.323 29.22C134.723 28.89 134.248 28.435 133.898 27.855C133.558 27.265 133.388 26.6 133.388 25.86C133.388 25.12 133.558 24.46 133.898 23.88C134.248 23.3 134.723 22.85 135.323 22.53C135.923 22.21 136.598 22.05 137.348 22.05C138.018 22.05 138.623 22.185 139.163 22.455C139.703 22.725 140.138 23.115 140.468 23.625V22.11H141.488ZM137.453 28.755C138.023 28.755 138.538 28.635 138.998 28.395C139.458 28.145 139.813 27.8 140.063 27.36C140.323 26.92 140.453 26.42 140.453 25.86C140.453 25.3 140.323 24.805 140.063 24.375C139.813 23.935 139.458 23.595 138.998 23.355C138.548 23.105 138.033 22.98 137.453 22.98C136.883 22.98 136.368 23.1 135.908 23.34C135.458 23.58 135.103 23.92 134.843 24.36C134.593 24.8 134.468 25.3 134.468 25.86C134.468 26.42 134.593 26.92 134.843 27.36C135.103 27.8 135.458 28.145 135.908 28.395C136.368 28.635 136.883 28.755 137.453 28.755ZM148.486 22.05C149.476 22.05 150.261 22.34 150.841 22.92C151.431 23.49 151.726 24.325 151.726 25.425V30H150.661V25.53C150.661 24.71 150.456 24.085 150.046 23.655C149.636 23.225 149.051 23.01 148.291 23.01C147.441 23.01 146.766 23.265 146.266 23.775C145.776 24.275 145.531 24.97 145.531 25.86V30H144.466V22.11H145.486V23.565C145.776 23.085 146.176 22.715 146.686 22.455C147.206 22.185 147.806 22.05 148.486 22.05ZM158.543 22.11H159.608V30H158.543V22.11ZM159.083 20.385C158.863 20.385 158.678 20.31 158.528 20.16C158.378 20.01 158.303 19.83 158.303 19.62C158.303 19.42 158.378 19.245 158.528 19.095C158.678 18.945 158.863 18.87 159.083 18.87C159.303 18.87 159.488 18.945 159.638 19.095C159.788 19.235 159.863 19.405 159.863 19.605C159.863 19.825 159.788 20.01 159.638 20.16C159.488 20.31 159.303 20.385 159.083 20.385ZM166.591 22.05C167.581 22.05 168.366 22.34 168.946 22.92C169.536 23.49 169.831 24.325 169.831 25.425V30H168.766V25.53C168.766 24.71 168.561 24.085 168.151 23.655C167.741 23.225 167.156 23.01 166.396 23.01C165.546 23.01 164.871 23.265 164.371 23.775C163.881 24.275 163.636 24.97 163.636 25.86V30H162.571V22.11H163.591V23.565C163.881 23.085 164.281 22.715 164.791 22.455C165.311 22.185 165.911 22.05 166.591 22.05ZM188.228 22.11L185.243 30H184.238L181.748 23.535L179.258 30H178.253L175.283 22.11H176.303L178.778 28.815L181.313 22.11H182.228L184.748 28.815L187.253 22.11H188.228ZM189.832 22.11H190.897V30H189.832V22.11ZM190.372 20.385C190.152 20.385 189.967 20.31 189.817 20.16C189.667 20.01 189.592 19.83 189.592 19.62C189.592 19.42 189.667 19.245 189.817 19.095C189.967 18.945 190.152 18.87 190.372 18.87C190.592 18.87 190.777 18.945 190.927 19.095C191.077 19.235 191.152 19.405 191.152 19.605C191.152 19.825 191.077 20.01 190.927 20.16C190.777 20.31 190.592 20.385 190.372 20.385ZM198.015 29.52C197.815 29.7 197.565 29.84 197.265 29.94C196.975 30.03 196.67 30.075 196.35 30.075C195.61 30.075 195.04 29.875 194.64 29.475C194.24 29.075 194.04 28.51 194.04 27.78V23.01H192.63V22.11H194.04V20.385H195.105V22.11H197.505V23.01H195.105V27.72C195.105 28.19 195.22 28.55 195.45 28.8C195.69 29.04 196.03 29.16 196.47 29.16C196.69 29.16 196.9 29.125 197.1 29.055C197.31 28.985 197.49 28.885 197.64 28.755L198.015 29.52ZM203.974 22.05C204.964 22.05 205.749 22.34 206.329 22.92C206.919 23.49 207.214 24.325 207.214 25.425V30H206.149V25.53C206.149 24.71 205.944 24.085 205.534 23.655C205.124 23.225 204.539 23.01 203.779 23.01C202.929 23.01 202.254 23.265 201.754 23.775C201.264 24.275 201.019 24.97 201.019 25.86V30H199.954V18.87H201.019V23.49C201.309 23.03 201.709 22.675 202.219 22.425C202.729 22.175 203.314 22.05 203.974 22.05ZM220.841 27.195H214.991L213.731 30H212.576L217.376 19.5H218.471L223.271 30H222.101L220.841 27.195ZM220.436 26.295L217.916 20.655L215.396 26.295H220.436ZM228.848 22.05C229.588 22.05 230.258 22.22 230.858 22.56C231.458 22.89 231.928 23.36 232.268 23.97C232.608 24.58 232.778 25.275 232.778 26.055C232.778 26.845 232.608 27.545 232.268 28.155C231.928 28.765 231.458 29.24 230.858 29.58C230.268 29.91 229.598 30.075 228.848 30.075C228.208 30.075 227.628 29.945 227.108 29.685C226.598 29.415 226.178 29.025 225.848 28.515V32.91H224.783V22.11H225.803V23.67C226.123 23.15 226.543 22.75 227.063 22.47C227.593 22.19 228.188 22.05 228.848 22.05ZM228.773 29.13C229.323 29.13 229.823 29.005 230.273 28.755C230.723 28.495 231.073 28.13 231.323 27.66C231.583 27.19 231.713 26.655 231.713 26.055C231.713 25.455 231.583 24.925 231.323 24.465C231.073 23.995 230.723 23.63 230.273 23.37C229.823 23.11 229.323 22.98 228.773 22.98C228.213 22.98 227.708 23.11 227.258 23.37C226.818 23.63 226.468 23.995 226.208 24.465C225.958 24.925 225.833 25.455 225.833 26.055C225.833 26.655 225.958 27.19 226.208 27.66C226.468 28.13 226.818 28.495 227.258 28.755C227.708 29.005 228.213 29.13 228.773 29.13ZM239.014 22.05C239.754 22.05 240.424 22.22 241.024 22.56C241.624 22.89 242.094 23.36 242.434 23.97C242.774 24.58 242.944 25.275 242.944 26.055C242.944 26.845 242.774 27.545 242.434 28.155C242.094 28.765 241.624 29.24 241.024 29.58C240.434 29.91 239.764 30.075 239.014 30.075C238.374 30.075 237.794 29.945 237.274 29.685C236.764 29.415 236.344 29.025 236.014 28.515V32.91H234.949V22.11H235.969V23.67C236.289 23.15 236.709 22.75 237.229 22.47C237.759 22.19 238.354 22.05 239.014 22.05ZM238.939 29.13C239.489 29.13 239.989 29.005 240.439 28.755C240.889 28.495 241.239 28.13 241.489 27.66C241.749 27.19 241.879 26.655 241.879 26.055C241.879 25.455 241.749 24.925 241.489 24.465C241.239 23.995 240.889 23.63 240.439 23.37C239.989 23.11 239.489 22.98 238.939 22.98C238.379 22.98 237.874 23.11 237.424 23.37C236.984 23.63 236.634 23.995 236.374 24.465C236.124 24.925 235.999 25.455 235.999 26.055C235.999 26.655 236.124 27.19 236.374 27.66C236.634 28.13 236.984 28.495 237.424 28.755C237.874 29.005 238.379 29.13 238.939 29.13ZM245.115 18.87H246.18V30H245.115V18.87ZM256.013 26.385H249.413C249.473 27.205 249.788 27.87 250.358 28.38C250.928 28.88 251.648 29.13 252.518 29.13C253.008 29.13 253.458 29.045 253.868 28.875C254.278 28.695 254.633 28.435 254.933 28.095L255.533 28.785C255.183 29.205 254.743 29.525 254.213 29.745C253.693 29.965 253.118 30.075 252.488 30.075C251.678 30.075 250.958 29.905 250.328 29.565C249.708 29.215 249.223 28.735 248.873 28.125C248.523 27.515 248.348 26.825 248.348 26.055C248.348 25.285 248.513 24.595 248.843 23.985C249.183 23.375 249.643 22.9 250.223 22.56C250.813 22.22 251.473 22.05 252.203 22.05C252.933 22.05 253.588 22.22 254.168 22.56C254.748 22.9 255.203 23.375 255.533 23.985C255.863 24.585 256.028 25.275 256.028 26.055L256.013 26.385ZM252.203 22.965C251.443 22.965 250.803 23.21 250.283 23.7C249.773 24.18 249.483 24.81 249.413 25.59H255.008C254.938 24.81 254.643 24.18 254.123 23.7C253.613 23.21 252.973 22.965 252.203 22.965Z" fill="black"/>
</svg>
