<svg width="500" height="346" viewBox="0 0 500 346" fill="none" xmlns="http://www.w3.org/2000/svg">
<g clip-path="url(#clip0)">
<path d="M382.168 63.1079L317.304 107.444H412.473L382.168 63.1079Z" fill="#F2F2F2"/>
<path d="M417.537 112.181H311.375L279.01 134.303H432.658L417.537 112.181Z" fill="#F2F2F2"/>
<path d="M275.157 138.667L172.576 208.784L245.647 315.686L458.201 170.398L436.512 138.667H275.157Z" fill="#F2F2F2"/>
<path d="M285.714 345.374C404.061 345.374 500 340.636 500 334.792C500 328.948 404.061 324.21 285.714 324.21C167.368 324.21 71.4286 328.948 71.4286 334.792C71.4286 340.636 167.368 345.374 285.714 345.374Z" fill="#F2F2F2"/>
<path d="M61.6402 323.152C95.6832 323.152 123.28 319.598 123.28 315.215C123.28 310.832 95.6832 307.279 61.6402 307.279C27.5973 307.279 0 310.832 0 315.215C0 319.598 27.5973 323.152 61.6402 323.152Z" fill="#F2F2F2"/>
<path d="M169.41 187.14C173.441 187.14 176.709 185.248 176.709 182.915C176.709 180.581 173.441 178.689 169.41 178.689C165.38 178.689 162.112 180.581 162.112 182.915C162.112 185.248 165.38 187.14 169.41 187.14Z" fill="#3F3D56"/>
<path d="M361.183 213.837H197.163L201.196 199.317L204.684 186.756L210.607 165.437H348.123L353.877 186.756L357.814 201.352L361.183 213.837Z" fill="#3F3D56"/>
<path opacity="0.1" d="M357.814 201.352H201.196V199.317L204.684 186.756H353.877L357.814 201.352Z" fill="black"/>
<path d="M180.07 181.57H158.751V198.087H180.07V181.57Z" fill="#00577F"/>
<path d="M415.344 189.637H143.386V334.835H415.344V189.637Z" fill="#3F3D56"/>
<path d="M415.344 244.182H143.386V280.289H415.344V244.182Z" fill="#00577F"/>
<path d="M279.365 329.649C316.596 329.649 346.778 299.467 346.778 262.236C346.778 225.004 316.596 194.822 279.365 194.822C242.134 194.822 211.952 225.004 211.952 262.236C211.952 299.467 242.134 329.649 279.365 329.649Z" fill="#2F2E41"/>
<path d="M279.365 324.847C313.945 324.847 341.977 296.815 341.977 262.236C341.977 227.656 313.945 199.624 279.365 199.624C244.786 199.624 216.753 227.656 216.753 262.236C216.753 296.815 244.786 324.847 279.365 324.847Z" fill="#3F3D56"/>
<path d="M279.365 309.867C305.671 309.867 326.996 288.542 326.996 262.236C326.996 235.93 305.671 214.605 279.365 214.605C253.059 214.605 231.734 235.93 231.734 262.236C231.734 288.542 253.059 309.867 279.365 309.867Z" fill="#2F2E41"/>
<path opacity="0.2" d="M373.475 204.233C376.02 204.233 378.084 202.17 378.084 199.624C378.084 197.078 376.02 195.015 373.475 195.015C370.929 195.015 368.865 197.078 368.865 199.624C368.865 202.17 370.929 204.233 373.475 204.233Z" fill="#00577F"/>
<path opacity="0.5" d="M387.303 204.233C389.849 204.233 391.913 202.17 391.913 199.624C391.913 197.078 389.849 195.015 387.303 195.015C384.757 195.015 382.694 197.078 382.694 199.624C382.694 202.17 384.757 204.233 387.303 204.233Z" fill="#00577F"/>
<path d="M401.131 204.233C403.677 204.233 405.741 202.17 405.741 199.624C405.741 197.078 403.677 195.015 401.131 195.015C398.586 195.015 396.522 197.078 396.522 199.624C396.522 202.17 398.586 204.233 401.131 204.233Z" fill="#00577F"/>
<path d="M295.306 168.894H263.04V183.491H295.306V168.894Z" fill="#2F2E41"/>
<path d="M27.9359 125.414L30.7605 122.59C30.7605 122.59 37.9789 110.036 30.7605 110.978C23.5421 111.919 23.5421 118.196 23.5421 118.196V125.414L27.9359 125.414Z" fill="#9F616A"/>
<path d="M139.978 155.857L142.803 154.916C142.803 154.916 150.335 143.617 151.277 148.639C152.218 153.66 147.511 160.565 147.511 160.565H139.978L139.978 155.857Z" fill="#9F616A"/>
<path d="M181.481 30.7614L58.7999 0L28.8019 119.637L151.483 150.399L181.481 30.7614Z" fill="#3F3D56"/>
<path opacity="0.2" d="M170.212 35.8369L64.8519 9.41873L46.3393 83.2501L151.699 109.668L170.212 35.8369Z" fill="#00577F"/>
<path d="M72.5855 124.002C79.5592 124.002 85.2126 119.295 85.2126 113.488C85.2126 107.682 79.5592 102.975 72.5855 102.975C65.6117 102.975 59.9584 107.682 59.9584 113.488C59.9584 119.295 65.6117 124.002 72.5855 124.002Z" fill="#2F2E41"/>
<path d="M53.0436 198.54C53.0436 198.54 48.3359 211.408 47.3944 244.048C46.4528 276.687 45.5113 297.087 49.5913 299.912C53.6713 302.737 59.6343 302.109 59.9482 301.481C60.262 300.853 61.8312 260.054 61.8312 260.054L69.9912 229.611L79.0927 250.325V286.417C79.0927 286.417 85.9972 292.694 88.8218 286.73C91.6464 280.767 93.5295 250.325 93.5295 250.325C93.5295 250.325 96.9818 198.54 91.0188 192.263C85.0557 185.986 53.0436 198.54 53.0436 198.54Z" fill="#2F2E41"/>
<path d="M53.9851 299.912C53.9851 299.912 50.5328 296.773 47.7082 300.853C44.8836 304.933 35.4683 313.721 37.6652 315.29C39.8621 316.859 51.1605 317.487 52.4159 315.918C52.4159 315.918 61.5174 311.838 61.5174 310.896C61.5174 309.955 60.262 299.598 59.0066 299.912C57.7513 300.226 54.299 302.736 53.9851 299.912Z" fill="#2F2E41"/>
<path d="M83.4864 284.534H89.5687C89.5687 284.534 87.8803 288.927 89.4495 288.927C91.0187 288.927 105.456 300.853 99.8063 302.109C94.1571 303.364 78.1511 297.715 77.5234 295.832C76.8957 293.949 79.7203 285.475 79.7203 285.475L83.4864 287.358V284.534Z" fill="#2F2E41"/>
<path d="M65.9112 121.648C65.9112 121.648 65.2835 132.319 62.145 133.261C59.0066 134.202 72.1881 143.931 72.1881 143.931L81.2895 132.005C81.2895 132.005 77.8373 126.042 79.0926 121.648C80.348 117.254 65.9112 121.648 65.9112 121.648Z" fill="#9F616A"/>
<path opacity="0.1" d="M65.9112 121.648C65.9112 121.648 65.2835 132.319 62.145 133.261C59.0066 134.202 72.1881 143.931 72.1881 143.931L81.2895 132.005C81.2895 132.005 77.8373 126.042 79.0926 121.648C80.348 117.254 65.9112 121.648 65.9112 121.648Z" fill="black"/>
<path d="M71.5604 133.888C71.5604 133.888 60.5758 129.808 59.0066 130.75C57.4374 131.691 42.6867 138.282 42.3729 139.537C42.059 140.793 44.2559 158.996 44.2559 158.996C44.2559 158.996 48.0221 160.565 48.3359 167.156C48.6497 173.746 57.1235 184.103 54.2989 191.008C51.4743 197.912 48.6497 200.423 53.9851 201.365C59.3204 202.306 83.4865 200.737 84.7418 198.54C85.9972 196.343 93.2156 193.205 95.4125 193.832C97.6095 194.46 94.1572 161.193 94.1572 161.193L96.0402 156.485L102.317 139.224C102.317 139.224 92.9018 128.553 83.8003 129.494C83.8003 129.494 73.7573 130.75 71.5604 133.888Z" fill="#555AA8"/>
<path d="M47.0805 140.479L42.3728 139.537C42.3728 139.537 37.6652 142.676 36.0959 142.676C34.5267 142.676 34.5267 143.931 34.5267 143.931C34.5267 143.931 28.5637 134.83 29.8191 124.473C29.8191 124.473 22.6006 121.021 22.2868 123.531C21.9729 126.042 19.4622 154.602 24.7975 156.485C30.1329 158.368 48.3359 158.682 48.3359 158.682L47.0805 140.479Z" fill="#555AA8"/>
<path d="M97.9232 138.596H102.317L113.929 150.208C113.929 150.208 116.754 149.58 117.695 151.464C118.637 153.347 124.914 153.033 124.914 153.033L141.548 154.602C141.548 154.602 143.745 161.82 142.175 163.076C140.606 164.331 112.988 164.645 112.988 164.645C112.988 164.645 110.477 163.39 108.908 164.645C107.339 165.9 96.0402 158.054 94.7848 155.857C93.5294 153.66 97.9232 138.596 97.9232 138.596Z" fill="#555AA8"/>
<path d="M73.1296 126.67C79.5428 126.67 84.7418 121.471 84.7418 115.058C84.7418 108.644 79.5428 103.445 73.1296 103.445C66.7163 103.445 61.5173 108.644 61.5173 115.058C61.5173 121.471 66.7163 126.67 73.1296 126.67Z" fill="#9F616A"/>
<path d="M65.9298 108.304C65.9298 108.304 63.9437 103.14 66.8236 101.451L67.618 103.736C67.618 103.736 74.8675 99.366 76.7543 100.359L74.9668 102.742C74.9668 102.742 83.4079 102.742 84.0038 106.02L81.0246 106.119C81.0246 106.119 84.2024 108.204 84.3017 111.581L77.946 111.978L81.0246 113.766C81.0246 113.766 69.5049 115.355 66.7243 110.786L65.9298 108.304Z" fill="#2F2E41"/>
<path d="M61.6743 110.507C61.6743 110.507 65.0396 113.816 69.3949 112.182C73.7502 110.549 69.3949 104.561 69.3949 104.561L66.4914 103.109L61.6743 110.507Z" fill="#2F2E41"/>
<path d="M120.97 67.1463L110.661 72.5522L116.067 82.861L126.376 77.4552L120.97 67.1463Z" stroke="#F2F2F2" stroke-width="2" stroke-miterlimit="10"/>
<path d="M95.252 63.3495L85.1713 57.5294L79.3512 67.6101L89.4319 73.4302L95.252 63.3495Z" fill="#00577F"/>
<path d="M295.238 157.543C298.452 157.543 301.058 154.938 301.058 151.723C301.058 148.509 298.452 145.903 295.238 145.903C292.024 145.903 289.418 148.509 289.418 151.723C289.418 154.938 292.024 157.543 295.238 157.543Z" stroke="#3F3D56" stroke-width="2" stroke-miterlimit="10"/>
<path d="M277.249 135.321C280.463 135.321 283.069 132.715 283.069 129.501C283.069 126.287 280.463 123.681 277.249 123.681C274.034 123.681 271.429 126.287 271.429 129.501C271.429 132.715 274.034 135.321 277.249 135.321Z" stroke="#3F3D56" stroke-width="2" stroke-miterlimit="10"/>
<path d="M306.878 118.39C310.093 118.39 312.698 115.784 312.698 112.57C312.698 109.355 310.093 106.75 306.878 106.75C303.664 106.75 301.058 109.355 301.058 112.57C301.058 115.784 303.664 118.39 306.878 118.39Z" stroke="#3F3D56" stroke-width="2" stroke-miterlimit="10"/>
<path d="M110.053 54.3687C113.267 54.3687 115.873 51.7629 115.873 48.5486C115.873 45.3342 113.267 42.7285 110.053 42.7285C106.839 42.7285 104.233 45.3342 104.233 48.5486C104.233 51.7629 106.839 54.3687 110.053 54.3687Z" stroke="#F2F2F2" stroke-width="2" stroke-miterlimit="10"/>
</g>
<defs>
<clipPath id="clip0">
<rect width="500" height="345.374" fill="white"/>
</clipPath>
</defs>
</svg>
