<svg width="720" height="618" viewBox="0 0 720 618" fill="none" xmlns="http://www.w3.org/2000/svg">
<g clip-path="url(#clip0)">
<path opacity="0.1" d="M218.145 99.5077C251.451 120.572 294.65 119.201 332.501 108.252C370.352 97.302 405.131 77.7738 441.998 63.9017C472.965 52.2642 505.298 44.6501 538.205 41.2462C585.209 36.3858 637.704 42.3018 670.451 76.3559C706.923 114.286 704.127 182.701 664.677 217.504C644.613 235.212 618.334 243.901 595.426 257.726C572.519 271.551 551.313 294.513 553.251 321.202C555.054 345.906 576.056 364.867 597.797 376.762C614.592 385.955 635.286 395.99 637.311 415.03C639.272 433.455 621.871 447.895 605.257 456.103C551.068 482.886 484.292 482.626 430.308 455.426C411.047 445.721 393.339 432.817 373.141 425.255C320.11 405.396 261.668 425.389 205.509 432.699C157.824 438.874 109.393 435.688 62.9279 423.317C35.1127 415.897 7.19513 404.553 -12.3409 383.418C-26.4257 368.175 -35.1854 348.891 -43.4409 329.852C-52.2322 309.538 -60.6794 289.083 -68.7827 268.486C-73.6509 256.119 -78.4325 243.515 -79.6929 230.281C-81.9695 206.31 -72.3748 182.615 -59.314 162.377C-28.3005 114.325 23.9347 80.5624 80.471 71.9839C137.007 63.4054 196.947 80.1686 240.824 116.822" fill="#00577F"/>
<path opacity="0.1" d="M613.072 617.22C554.017 617.22 506.144 607.86 506.144 596.313C506.144 584.767 554.017 575.407 613.072 575.407C672.127 575.407 720 584.767 720 596.313C720 607.86 672.127 617.22 613.072 617.22Z" fill="#00577F"/>
<path opacity="0.1" d="M295.415 573.555C171.623 573.555 71.2704 564.195 71.2704 552.649C71.2704 541.102 171.623 531.742 295.415 531.742C419.206 531.742 519.559 541.102 519.559 552.649C519.559 564.195 419.206 573.555 295.415 573.555Z" fill="#00577F"/>
<path d="M143.27 403.797C143.27 403.797 111.847 348.135 64.4958 332.112C44.6368 325.377 27.2985 312.718 15.443 295.419C9.83604 287.2 4.99227 278.486 0.972171 269.384" stroke="#535461" stroke-width="2" stroke-miterlimit="10"/>
<path d="M-28.7574 259.081C-23.3613 264.311 1.75195 269.723 1.75195 269.723C1.75195 269.723 -4.40824 244.791 -9.80429 239.553C-12.3939 237.039 -15.8758 235.658 -19.4842 235.711C-23.0925 235.765 -26.5315 237.251 -29.0449 239.84C-31.5582 242.43 -32.9399 245.912 -32.886 249.52C-32.8321 253.128 -31.347 256.567 -28.7574 259.081Z" fill="#00577F"/>
<path d="M-14.5464 304.21C-7.18099 305.668 16.8452 296.561 16.8452 296.561C16.8452 296.561 -1.87941 278.979 -9.25269 277.514C-12.7929 276.812 -16.467 277.545 -19.4666 279.552C-22.4663 281.559 -24.5459 284.675 -25.2479 288.215C-25.9498 291.756 -25.2168 295.43 -23.2098 298.429C-21.2029 301.429 -18.0866 303.508 -14.5464 304.21Z" fill="#00577F"/>
<path d="M37.1766 353.043C44.2663 350.585 60.415 330.6 60.415 330.6C60.415 330.6 35.3727 324.865 28.2751 327.323C24.9454 328.565 22.2335 331.06 20.7189 334.275C19.2043 337.49 19.0071 341.17 20.1694 344.528C21.3317 347.887 23.7615 350.658 26.9394 352.248C30.1173 353.839 33.7913 354.124 37.1766 353.043Z" fill="#00577F"/>
<path d="M84.6302 381.173C92.0429 379.952 111.335 362.984 111.335 362.984C111.335 362.984 87.6158 353.106 80.2031 354.319C78.4404 354.609 76.7521 355.244 75.2348 356.188C73.7175 357.131 72.4008 358.364 71.3599 359.816C70.319 361.268 69.5742 362.91 69.1682 364.65C68.7622 366.39 68.7029 368.193 68.9936 369.955C69.2842 371.718 69.9193 373.406 70.8624 374.924C71.8056 376.441 73.0383 377.758 74.4903 378.799C75.9423 379.84 77.5851 380.584 79.3249 380.99C81.0647 381.396 82.8675 381.456 84.6302 381.165V381.173Z" fill="#00577F"/>
<path d="M37.7832 277.104C37.7832 284.619 24.1946 306.416 24.1946 306.416C24.1946 306.416 10.5745 284.627 10.5745 277.112C10.5745 273.504 12.0079 270.044 14.5592 267.492C17.1105 264.941 20.5708 263.508 24.1789 263.508C27.787 263.508 31.2473 264.941 33.7986 267.492C36.3499 270.044 37.7832 273.504 37.7832 277.112V277.104Z" fill="#00577F"/>
<path d="M92.8703 310.686C90.6252 317.854 71.1285 334.586 71.1285 334.586C71.1285 334.586 64.6533 309.725 66.8983 302.556C67.9764 299.109 70.3797 296.231 73.5795 294.556C76.7794 292.881 80.5137 292.545 83.9609 293.623C87.4081 294.701 90.2859 297.105 91.9612 300.304C93.6364 303.504 93.9719 307.239 92.8939 310.686H92.8703Z" fill="#00577F"/>
<path d="M141.946 350.695C140.922 358.147 124.537 377.935 124.537 377.935C124.537 377.935 113.95 354.531 114.95 347.079C115.188 345.308 115.773 343.602 116.67 342.056C117.568 340.511 118.761 339.158 120.182 338.074C121.602 336.99 123.222 336.196 124.95 335.738C126.677 335.28 128.477 335.167 130.248 335.405C133.825 335.886 137.065 337.767 139.254 340.636C140.338 342.057 141.132 343.677 141.59 345.404C142.048 347.131 142.161 348.932 141.923 350.703L141.946 350.695Z" fill="#00577F"/>
<path opacity="0.25" d="M-28.7574 259.081C-23.3613 264.311 1.75195 269.723 1.75195 269.723C1.75195 269.723 -4.40824 244.791 -9.80429 239.553C-12.3939 237.039 -15.8758 235.658 -19.4842 235.711C-23.0925 235.765 -26.5315 237.251 -29.0449 239.84C-31.5582 242.43 -32.9399 245.912 -32.886 249.52C-32.8321 253.128 -31.347 256.567 -28.7574 259.081Z" fill="black"/>
<path opacity="0.25" d="M-14.5464 304.21C-7.18099 305.668 16.8452 296.561 16.8452 296.561C16.8452 296.561 -1.87941 278.979 -9.25269 277.514C-12.7929 276.812 -16.467 277.545 -19.4666 279.552C-22.4663 281.559 -24.5459 284.675 -25.2479 288.215C-25.9498 291.756 -25.2168 295.43 -23.2098 298.429C-21.2029 301.429 -18.0866 303.508 -14.5464 304.21Z" fill="black"/>
<path opacity="0.25" d="M37.1766 353.043C44.2663 350.585 60.415 330.6 60.415 330.6C60.415 330.6 35.3727 324.865 28.2751 327.323C24.9454 328.565 22.2335 331.06 20.7189 334.275C19.2043 337.49 19.0071 341.17 20.1694 344.528C21.3317 347.887 23.7615 350.658 26.9394 352.248C30.1173 353.839 33.7913 354.124 37.1766 353.043Z" fill="black"/>
<path opacity="0.25" d="M84.6302 381.173C92.0429 379.952 111.335 362.984 111.335 362.984C111.335 362.984 87.6158 353.106 80.2031 354.319C78.4404 354.609 76.7521 355.244 75.2348 356.188C73.7175 357.131 72.4008 358.364 71.3599 359.816C70.319 361.268 69.5742 362.91 69.1682 364.65C68.7622 366.39 68.7029 368.193 68.9936 369.955C69.2842 371.718 69.9193 373.406 70.8624 374.924C71.8056 376.441 73.0383 377.758 74.4903 378.799C75.9423 379.84 77.5851 380.584 79.3249 380.99C81.0647 381.396 82.8675 381.456 84.6302 381.165V381.173Z" fill="black"/>
<path opacity="0.25" d="M37.7832 277.104C37.7832 284.619 24.1946 306.416 24.1946 306.416C24.1946 306.416 10.5745 284.627 10.5745 277.112C10.5745 273.504 12.0079 270.044 14.5592 267.492C17.1105 264.941 20.5708 263.508 24.1789 263.508C27.787 263.508 31.2473 264.941 33.7986 267.492C36.3499 270.044 37.7832 273.504 37.7832 277.112V277.104Z" fill="black"/>
<path opacity="0.25" d="M92.8703 310.686C90.6252 317.854 71.1285 334.586 71.1285 334.586C71.1285 334.586 64.6533 309.725 66.8983 302.556C67.9764 299.109 70.3797 296.231 73.5795 294.556C76.7794 292.881 80.5137 292.545 83.9609 293.623C87.4081 294.701 90.2859 297.105 91.9612 300.304C93.6364 303.504 93.9719 307.239 92.8939 310.686H92.8703Z" fill="black"/>
<path opacity="0.25" d="M141.946 350.695C140.922 358.147 124.537 377.935 124.537 377.935C124.537 377.935 113.95 354.531 114.95 347.079C115.188 345.308 115.773 343.602 116.67 342.056C117.568 340.511 118.761 339.158 120.182 338.074C121.602 336.99 123.222 336.196 124.95 335.738C126.677 335.28 128.477 335.167 130.248 335.405C133.825 335.886 137.065 337.767 139.254 340.636C140.338 342.057 141.132 343.677 141.59 345.404C142.048 347.131 142.161 348.932 141.923 350.703L141.946 350.695Z" fill="black"/>
<path d="M141.466 402.686C141.466 402.686 135.29 339.068 98.5341 305.235C83.1022 291.055 72.381 272.425 68.5999 251.81C66.8008 242.024 65.9016 232.094 65.9136 222.143" stroke="#535461" stroke-width="2" stroke-miterlimit="10"/>
<path d="M42.8406 200.693C45.6449 207.665 66.4098 222.75 66.4098 222.75C66.4098 222.75 70.8842 197.456 68.072 190.453C66.6184 187.265 63.9909 184.76 60.7368 183.462C57.4828 182.163 53.8531 182.169 50.6038 183.48C47.3546 184.791 44.7364 187.305 43.2946 190.498C41.8528 193.692 41.6986 197.318 42.8642 200.622L42.8406 200.693Z" fill="#00577F"/>
<path d="M37.5392 247.69C43.6836 252.015 69.3325 253.425 69.3325 253.425C69.3325 253.425 59.3439 229.792 53.1917 225.436C50.2392 223.406 46.6049 222.622 43.078 223.255C39.5512 223.889 36.4165 225.888 34.3551 228.819C32.2936 231.75 31.4717 235.376 32.0678 238.909C32.664 242.442 34.6302 245.598 37.5392 247.69Z" fill="#00577F"/>
<path d="M65.0392 313.293C72.5227 313.923 95.3831 302.194 95.3831 302.194C95.3831 302.194 74.8072 286.809 67.3158 286.179C63.7202 285.877 60.152 287.016 57.3961 289.345C54.6402 291.674 52.9223 295.002 52.6204 298.598C52.3185 302.193 53.4573 305.762 55.7863 308.518C58.1152 311.273 61.4436 312.991 65.0392 313.293Z" fill="#00577F"/>
<path d="M97.0452 358.242C104.316 360.124 128.831 352.428 128.831 352.428C128.831 352.428 111.154 333.782 103.875 331.9C100.382 330.994 96.6718 331.513 93.5614 333.343C90.4509 335.172 88.1947 338.163 87.289 341.656C86.3833 345.149 86.9024 348.859 88.732 351.969C90.5616 355.08 93.552 357.336 97.0452 358.242Z" fill="#00577F"/>
<path d="M96.3756 244.098C93.3349 250.967 72.0737 265.367 72.0737 265.367C72.0737 265.367 68.4501 239.939 71.4908 233.069C72.9532 229.77 75.6667 227.186 79.0342 225.886C82.4017 224.587 86.1474 224.679 89.4473 226.141C92.7473 227.604 95.3311 230.317 96.6304 233.685C97.9297 237.052 97.838 240.798 96.3756 244.098Z" fill="#00577F"/>
<path d="M133.116 297.144C128.153 302.785 103.552 310.182 103.552 310.182C103.552 310.182 107.711 284.832 112.666 279.184C113.846 277.839 115.278 276.74 116.882 275.949C118.487 275.157 120.231 274.69 122.016 274.573C123.8 274.456 125.591 274.692 127.285 275.266C128.978 275.841 130.542 276.744 131.887 277.924C133.232 279.103 134.331 280.535 135.122 282.14C135.914 283.744 136.381 285.488 136.498 287.273C136.615 289.058 136.379 290.848 135.805 292.542C135.23 294.236 134.327 295.8 133.148 297.144H133.116Z" fill="#00577F"/>
<path d="M161.751 353.602C157.812 360.006 134.818 371.452 134.818 371.452C134.818 371.452 134.629 345.764 138.559 339.36C140.448 336.284 143.481 334.085 146.991 333.246C150.501 332.407 154.201 332.997 157.276 334.885C160.352 336.774 162.551 339.807 163.39 343.317C164.229 346.827 163.639 350.527 161.751 353.602Z" fill="#00577F"/>
<path d="M497.982 0V21.5684V555.721H98.2817V21.5684V0H497.982Z" fill="url(#paint0_linear)"/>
<path d="M101.787 4.87613H494.477V26.0585H101.787V4.87613Z" fill="#F6F7F9"/>
<g opacity="0.2">
<path opacity="0.2" d="M101.787 4.87613H494.477V26.0585H101.787V4.87613Z" fill="#00577F"/>
</g>
<path d="M101.787 26.0585H494.477V550.845H101.787V26.0585Z" fill="#F6F7F9"/>
<path d="M484.15 19.0555C482.166 19.0555 480.557 17.4473 480.557 15.4634C480.557 13.4795 482.166 11.8713 484.15 11.8713C486.133 11.8713 487.742 13.4795 487.742 15.4634C487.742 17.4473 486.133 19.0555 484.15 19.0555Z" fill="#F6F7F9"/>
<path d="M474.413 19.0555C472.429 19.0555 470.821 17.4473 470.821 15.4634C470.821 13.4795 472.429 11.8713 474.413 11.8713C476.397 11.8713 478.005 13.4795 478.005 15.4634C478.005 17.4473 476.397 19.0555 474.413 19.0555Z" fill="#F6F7F9"/>
<path d="M464.677 19.0555C462.693 19.0555 461.085 17.4473 461.085 15.4634C461.085 13.4795 462.693 11.8713 464.677 11.8713C466.661 11.8713 468.269 13.4795 468.269 15.4634C468.269 17.4473 466.661 19.0555 464.677 19.0555Z" fill="#F6F7F9"/>
<g opacity="0.2">
<path opacity="0.2" d="M171.881 58.4111H424.392V68.2973H171.881V58.4111Z" fill="#00577F"/>
</g>
<path d="M171.881 58.4111H205.431V68.2973H171.881V58.4111Z" fill="#00577F"/>
<g opacity="0.2">
<path opacity="0.2" d="M139.229 260.443H457.036V374.264H139.229V260.443Z" fill="#00577F"/>
<path opacity="0.2" d="M139.229 260.451H148.682V261.239H139.229V260.451ZM158.134 260.451H167.587V261.239H158.134V260.451ZM177.04 260.451H186.493V261.239H177.04V260.451ZM195.946 260.451H205.399V261.239H195.946V260.451ZM214.852 260.451H224.305V261.239H214.852V260.451ZM233.758 260.451H243.211V261.239H233.758V260.451ZM252.664 260.451H262.117V261.239H252.664V260.451ZM271.569 260.451H281.022V261.239H271.569V260.451ZM290.475 260.451H299.928V261.239H290.475V260.451ZM309.381 260.451H318.834V261.239H309.381V260.451ZM328.287 260.451H337.74V261.239H328.287V260.451ZM347.193 260.451H356.646V261.239H347.193V260.451ZM366.099 260.451H375.551V261.239H366.099V260.451ZM385.004 260.451H394.457V261.239H385.004V260.451ZM403.91 260.451H413.363V261.239H403.91V260.451ZM422.816 260.451H432.269V261.239H422.816V260.451ZM441.722 260.451H451.175V261.239H441.722V260.451ZM456.256 264.043H457.043V273.496H456.256V264.043ZM456.256 282.949H457.043V292.402H456.256V282.949ZM456.256 301.855H457.043V311.308H456.256V301.855ZM456.256 320.761H457.043V330.214H456.256V320.761ZM456.256 339.667H457.043V349.12H456.256V339.667ZM456.256 358.573H457.043V368.025H456.256V358.573ZM444.392 373.485H453.845V374.272H444.392V373.485ZM425.486 373.485H434.939V374.272H425.486V373.485ZM406.581 373.485H416.034V374.272H406.581V373.485ZM387.675 373.485H397.128V374.272H387.675V373.485ZM368.769 373.485H378.222V374.272H368.769V373.485ZM349.863 373.485H359.316V374.272H349.863V373.485ZM330.957 373.485H340.41V374.272H330.957V373.485ZM312.052 373.485H321.504V374.272H312.052V373.485ZM293.146 373.485H302.599V374.272H293.146V373.485ZM274.24 373.485H283.693V374.272H274.24V373.485ZM255.334 373.485H264.787V374.272H255.334V373.485ZM236.428 373.485H245.881V374.272H236.428V373.485ZM217.522 373.485H226.975V374.272H217.522V373.485ZM198.617 373.485H208.07V374.272H198.617V373.485ZM179.711 373.485H189.164V374.272H179.711V373.485ZM160.805 373.485H170.258V374.272H160.805V373.485ZM141.899 373.485H151.352V374.272H141.899V373.485ZM139.237 358.029H140.024V367.482H139.237V358.029ZM139.237 339.123H140.024V348.576H139.237V339.123ZM139.237 320.217H140.024V329.67H139.237V320.217ZM139.237 301.312H140.024V310.764H139.237V301.312ZM139.237 282.406H140.024V291.859H139.237V282.406ZM139.237 263.5H140.024V272.953H139.237V263.5Z" fill="#00577F"/>
</g>
<path d="M708.546 353.247C708.546 353.247 705.191 361.779 706.396 363.874C706.396 363.874 705.789 370.176 697.66 374.501C689.53 378.826 680.329 389.169 680.329 389.169C679.531 390.457 678.475 391.567 677.228 392.429C675.981 393.291 674.57 393.886 673.082 394.179C673.003 395.171 672.948 395.754 672.948 395.754L672.523 395.935C672.617 396.282 672.712 396.644 672.806 397.014C673.027 397.873 673.248 398.787 673.452 399.732C674.799 405.869 675.611 413.478 672.893 417.756C672.521 418.333 672.189 418.936 671.901 419.56C668.23 427.343 670.743 437.111 670.743 437.111C670.743 437.111 667.529 459.262 666.126 462.854C665.126 465.398 666.048 468.951 666.67 470.802C666.967 471.691 667.121 472.622 667.127 473.559V481.437C667.127 481.437 668.702 488.022 667.915 489.818C667.127 491.615 669.317 496.609 669.317 496.609C669.317 496.609 674.54 518.358 672.334 521.95C670.128 525.543 670.325 533.522 670.325 533.522C670.325 533.522 666.111 564.654 664.496 565.82C663.181 566.988 662.033 568.332 661.085 569.814C661.085 569.814 663.952 576.864 662.227 579.771C662.184 579.845 662.137 579.916 662.085 579.984C662.4 580.771 663.109 582.733 663.495 584.229C663.621 584.718 663.747 585.34 663.858 586.025C664.077 587.348 664.18 588.687 664.165 590.027L664.291 590.137L664.157 590.256C664.15 590.85 664.062 591.441 663.897 592.012C663.298 593.808 658.777 593.808 658.777 593.808C658.777 593.808 650.695 596.109 647.079 597.905C643.463 599.701 641.005 598.748 641.005 598.748C632.718 600.646 622.099 597.353 618.862 596.707C615.624 596.061 614.387 591.918 618.366 591.114C618.872 591.01 619.368 590.86 619.847 590.665C621.834 589.808 623.556 588.435 624.833 586.687C627.518 584.12 630.342 581.703 633.293 579.448C635.322 577.951 637.11 576.153 638.595 574.115C639.416 573.324 640.461 572.806 641.588 572.634C641.221 571.991 641.087 571.24 641.209 570.51C641.331 569.779 641.701 569.113 642.258 568.624C641.918 567.949 641.824 567.175 641.992 566.438C642.16 565.7 642.58 565.045 643.179 564.583L644.668 563.433L644.322 563.031C643.873 562.509 643.602 561.857 643.548 561.17C643.494 560.483 643.66 559.797 644.022 559.211C644.668 558.132 645.299 556.217 645.464 552.862C645.874 545.079 647.874 542.085 647.874 542.085L646.669 506.558C646.781 504.632 646.781 502.702 646.669 500.776C646.472 498.578 642.73 499.988 642.155 499.429C641.58 498.87 641.454 495.986 639.847 495.183C639.28 494.899 638.784 493.899 638.39 492.725C637.684 490.484 637.543 488.102 637.98 485.793C638.079 485.245 638.064 484.683 637.937 484.141C637.809 483.599 637.572 483.089 637.24 482.642C635.428 480.279 636.035 472.071 636.035 472.071L633.254 454.961C628.843 469.479 623.226 486.967 621.367 488.235C618.153 490.425 618.563 493.418 618.563 493.418C621.17 496.617 620.138 510.386 620.138 510.386C620.138 510.386 620.138 548.497 618.255 551.097C616.373 553.697 612.741 561.668 612.741 561.668C612.741 561.668 623.454 571.121 615.104 575.95L614.75 579.984C614.8 580.037 614.844 580.095 614.884 580.157C615.663 581.117 616.203 582.248 616.459 583.457L616.514 583.52C616.664 584.797 616.105 586.049 613.749 586.577C608.117 587.822 588.439 587.727 588.439 587.727L577.411 589.468C577.411 589.468 558.505 591.264 556.378 585.427C554.251 579.59 558.032 579.913 558.032 579.913H558.182L566.059 579.282C566.059 579.282 576.048 575.438 579.719 572.791C582.611 570.556 585.343 568.121 587.896 565.505C588.613 565.393 589.346 565.529 589.975 565.891L590.314 565.552L590.858 565.008L588.786 561.858C586.714 558.265 594.844 551.475 594.844 551.475C594.844 551.475 592.669 543.093 593.473 542.7C594.276 542.306 594.804 534.696 594.804 534.696C594.804 534.696 592.827 507.125 593.63 504.565C593.993 503.399 593.418 502.147 592.677 501.13C591.568 499.574 591.014 497.691 591.102 495.782C591.165 494.206 590.921 492.418 589.786 491.197C587.376 488.597 589.786 477.427 589.786 477.427L591.787 462.657V439.198C591.799 434.681 592.634 430.205 594.253 425.988C595.305 423.051 595.988 419.995 596.285 416.889L595.616 417.086C595.882 416.932 596.122 416.735 596.325 416.503C596.364 416.125 596.411 415.715 596.443 415.361C597.081 407.972 600.996 400.796 603.745 396.565C604.375 394.092 603.674 383.78 603.674 383.78C600.523 378.392 603.525 370.609 603.525 370.609C603.525 370.609 606.675 333.79 608.645 328.701C610.614 323.613 611.504 292.032 606.833 292.331C602.162 292.631 572.046 277.364 572.046 277.364C572.046 277.364 572.795 276.167 562.853 272.126C552.912 268.085 538.433 255.512 538.433 255.512L518.401 231.565C518.474 231.581 518.549 231.581 518.622 231.565L518.212 231.431C515.923 230.751 513.804 229.595 511.993 228.04C510.183 226.484 508.721 224.563 507.703 222.403C504.237 214.794 511.177 204.498 515.723 199.874L520.063 197.542C521.221 198.495 520.796 202.694 522.686 207.192C524.255 211.202 525.57 215.306 526.625 219.481L526.83 220.269L527.019 219.922L537.551 228.264L547.492 236.346C547.492 236.346 569.486 246.973 572.196 249.667C574.906 252.361 575.812 251.613 578.214 252.212C580.617 252.81 580.932 254.457 581.68 254.307C582.429 254.157 583.792 256.402 584.831 256.103C585.871 255.804 588.14 257.001 589.652 257.3C591.165 257.6 601.862 262.137 601.862 262.137C608.495 258.844 626.416 260.191 626.416 260.191C626.416 260.191 632.293 256.749 633.947 260.191C634.401 261.169 635.123 261.998 636.03 262.581C636.936 263.164 637.99 263.477 639.067 263.484L646.212 260.444C646.212 260.254 646.212 260.058 646.157 259.868V259.75C646.102 259.301 646.031 258.876 645.96 258.466C642.319 257.025 639.092 254.704 636.565 251.713C634.038 248.721 632.291 245.15 631.479 241.319C630.667 237.488 630.816 233.516 631.912 229.757C633.008 225.997 635.017 222.567 637.76 219.772L638.382 219.174C637.65 218.83 636.96 218.401 636.326 217.898C636.121 217.765 635.966 217.569 635.885 217.338C635.864 217.259 635.859 217.177 635.869 217.096C635.88 217.015 635.907 216.936 635.948 216.866C636.01 216.672 636.112 216.494 636.247 216.343C636.383 216.193 636.55 216.072 636.736 215.991C638.91 214.817 641.313 215.203 643.195 213.321C643.63 212.891 643.966 212.372 644.18 211.8C644.389 211.185 644.389 210.518 644.18 209.902C643.652 208.5 641.951 207.539 642.053 206.026H642.124C642.124 205.94 642.124 205.853 642.124 205.766C643.908 206.487 645.826 206.815 647.748 206.727L647.394 205.152H647.26L647.071 204.317L647.205 204.356L647.15 204.088L652.443 205.506C652.633 205.588 652.84 205.624 653.046 205.611C653.253 205.599 653.454 205.539 653.633 205.435C653.832 205.196 653.973 204.912 654.042 204.608C654.499 203.498 655.972 203.143 657.13 203.458C658.256 203.883 659.317 204.464 660.281 205.183C663.708 207.271 667.891 207.547 671.877 208.051C675.863 208.555 680.101 209.414 682.905 212.281C686.623 216.109 686.576 222.136 688.9 226.933C689.336 227.701 689.692 228.511 689.964 229.351C690.203 230.616 690.181 231.916 689.901 233.172C689.333 236.859 688.711 240.687 686.75 243.846L686.962 243.594C686.726 244.009 686.463 244.418 686.174 244.823C684.764 246.808 682.779 248.423 681.275 250.337C681.369 250.156 681.487 249.99 681.59 249.809C680.744 250.773 680.077 251.88 679.62 253.078C679.101 254.559 678.99 256.229 678.368 257.631C678.16 258.18 677.856 258.687 677.47 259.128C676.977 259.624 676.377 260 675.716 260.227C675.055 260.453 674.35 260.525 673.657 260.436C674.307 262.137 675.097 263.781 676.02 265.351L676.139 265.556C676.537 265.537 676.936 265.583 677.32 265.69C679.069 266.013 685.056 271.157 685.056 271.157L695.746 280.61C711.863 293.214 708.247 312.789 708.247 312.789V322.715C708.247 322.715 711.398 333.341 708.247 343.984L708.546 353.247ZM685.009 353.397C685.009 353.397 679.431 348.907 681.393 346.213C682.023 345.346 682.275 343.527 682.33 341.486L675.067 357.619C675.067 357.619 670.695 364.654 672.956 367.797V367.852L681.621 357.769C681.621 357.769 681.992 353.397 685.009 353.397Z" fill="url(#paint1_linear)"/>
<path d="M528.547 225.499L523.82 234.724C522.315 234.597 520.831 234.287 519.401 233.802C517.137 233.122 515.043 231.971 513.255 230.425C511.467 228.879 510.026 226.972 509.027 224.83C504.789 215.456 516.313 201.985 519.582 200.221C522.852 198.456 521.371 203.789 523.82 209.673C525.361 213.658 526.648 217.736 527.672 221.884C528.208 224.026 528.547 225.499 528.547 225.499Z" fill="#CC818C"/>
<path d="M679.431 273.457L671.845 284.761C671.845 284.761 636.003 301.863 642.841 281.791C645.858 272.945 646.22 266.462 645.676 261.987C645.673 261.946 645.673 261.903 645.676 261.861C644.967 256.261 642.856 253.826 642.856 253.826C642.856 253.826 677.801 235.945 672.601 248.178C671.52 250.716 671.076 253.48 671.31 256.229C671.744 260.178 673.028 263.986 675.075 267.391C676.317 269.556 677.777 271.588 679.431 273.457Z" fill="#CC818C"/>
<path d="M668.568 497.239C668.568 497.239 673.728 518.847 671.546 522.447C669.364 526.047 669.569 533.948 669.569 533.948C669.569 533.948 665.402 564.882 663.81 566.072C662.513 567.226 661.379 568.551 660.439 570.011C660.439 570.011 663.275 577.014 661.573 579.905C661.316 580.356 660.917 580.711 660.439 580.913C657.784 582.032 647.969 577.061 642.376 574.012C641.677 573.632 641.148 573.002 640.895 572.248C640.685 571.652 640.659 571.006 640.82 570.395C640.982 569.784 641.323 569.236 641.801 568.821C641.467 568.149 641.376 567.382 641.543 566.65C641.709 565.918 642.123 565.266 642.715 564.804L644.18 563.661L643.841 563.26C643.4 562.738 643.133 562.091 643.079 561.409C643.026 560.728 643.187 560.047 643.542 559.463C644.188 558.391 644.81 556.493 644.975 553.161C645.369 545.433 647.339 542.455 647.339 542.455L646.165 507.125C646.272 505.21 646.272 503.29 646.165 501.375C645.968 499.193 642.297 500.634 641.698 500.035C641.1 499.437 641.013 496.617 639.422 495.821C638.862 495.537 638.374 494.545 637.98 493.379C637.288 491.151 637.15 488.788 637.578 486.494C637.679 485.947 637.666 485.385 637.54 484.842C637.414 484.3 637.178 483.79 636.846 483.343C635.066 480.98 635.656 472.835 635.656 472.835L632.915 455.835C628.559 470.259 623.013 487.636 621.178 488.92C618.027 491.102 618.405 494.072 618.405 494.072C620.981 497.223 619.98 510.938 619.98 510.938C619.98 510.938 619.98 548.805 618.121 551.388C616.262 553.972 612.607 561.889 612.607 561.889C612.607 561.889 623.234 571.342 614.876 576.116L614.789 576.171C606.258 580.897 588.604 567.647 588.604 567.647L590.456 565.804L590.991 565.261L588.943 562.11C586.895 558.541 594.922 551.798 594.922 551.798C594.922 551.798 592.78 543.464 593.567 543.07C594.355 542.676 594.922 535.137 594.922 535.137C594.922 535.137 592.976 507.771 593.764 505.203C594.127 504.045 593.559 502.84 592.827 501.792C591.74 500.239 591.205 498.367 591.306 496.475C591.362 494.899 591.125 493.135 589.999 491.922C587.636 489.338 589.999 478.239 589.999 478.239L591.984 463.563V440.214C591.973 435.733 592.774 431.287 594.347 427.09C595.573 423.691 596.329 420.139 596.592 416.535C597.238 409.02 601.319 401.709 603.997 397.55C605.439 395.352 606.51 394.029 606.51 394.029L669.955 391.548C669.955 391.548 670.994 394.368 671.995 398.306C672.215 399.157 672.436 400.063 672.641 401.008C673.964 407.105 674.768 414.66 672.082 418.914C671.716 419.49 671.39 420.09 671.105 420.71C667.473 428.437 669.955 438.15 669.955 438.15C669.955 438.15 666.804 460.16 665.402 463.728C664.417 466.257 665.323 469.786 665.937 471.606C666.231 472.49 666.382 473.415 666.386 474.347V482.154C666.386 482.154 667.962 488.7 667.174 490.48C666.386 492.26 668.568 497.239 668.568 497.239Z" fill="#444053"/>
<path opacity="0.1" d="M671.483 419.505C671.127 420.07 670.806 420.657 670.522 421.261L666.946 421.056C667.292 419.221 664.858 401.969 664.858 401.969L672.05 401.568C673.374 407.696 674.177 415.251 671.483 419.505Z" fill="black"/>
<path d="M672.097 418.898C671.732 419.474 671.406 420.074 671.12 420.694L667.544 420.489C667.891 418.654 665.464 401.402 665.464 401.402L672.657 400.993C673.964 407.082 674.768 414.652 672.097 418.898Z" fill="#444053"/>
<path opacity="0.05" d="M672.097 418.898C671.732 419.474 671.406 420.074 671.12 420.694L667.544 420.489C667.891 418.654 665.464 401.402 665.464 401.402L672.657 400.993C673.964 407.082 674.768 414.652 672.097 418.898Z" fill="black"/>
<path opacity="0.1" d="M661.573 579.905C661.316 580.356 660.918 580.711 660.439 580.913C657.784 582.032 647.969 577.061 642.376 574.012C641.677 573.632 641.148 573.002 640.895 572.248C644.046 571.665 646.165 575.21 646.165 575.21C646.697 574.88 647.288 574.659 647.906 574.56C648.524 574.461 649.155 574.485 649.763 574.632C650.371 574.778 650.945 575.044 651.449 575.414C651.954 575.783 652.38 576.25 652.703 576.785C655.437 580.803 661.282 579.109 661.282 579.109C661.282 579.109 661.4 579.424 661.573 579.905Z" fill="black"/>
<path d="M663.219 592.068C662.621 593.848 658.162 593.848 658.162 593.848C658.162 593.848 650.174 596.132 646.606 597.92C643.037 599.709 640.611 598.755 640.611 598.755C632.434 600.646 621.918 597.369 618.751 596.731C615.585 596.093 614.34 592.005 618.255 591.217C618.756 591.114 619.247 590.963 619.72 590.768C621.668 589.914 623.352 588.554 624.596 586.829C627.245 584.268 630.033 581.853 632.946 579.598C634.955 578.11 636.722 576.322 638.185 574.296C642.84 570.184 646.165 575.872 646.165 575.872C646.696 575.542 647.288 575.321 647.906 575.222C648.524 575.122 649.155 575.147 649.763 575.293C650.371 575.44 650.944 575.706 651.449 576.075C651.954 576.445 652.38 576.911 652.703 577.447C655.436 581.457 661.281 579.763 661.281 579.763C661.281 579.763 662.329 582.449 662.818 584.379C662.944 584.868 663.07 585.482 663.18 586.167C663.495 588.137 663.66 590.728 663.219 592.068Z" fill="#FF748F"/>
<path d="M649.584 579.519C649.284 579.519 649.04 579.275 649.04 578.975C649.04 578.675 649.284 578.432 649.584 578.432C649.884 578.432 650.127 578.675 650.127 578.975C650.127 579.275 649.884 579.519 649.584 579.519Z" fill="#575988"/>
<path d="M644.928 583.883C644.628 583.883 644.385 583.639 644.385 583.339C644.385 583.039 644.628 582.796 644.928 582.796C645.228 582.796 645.472 583.039 645.472 583.339C645.472 583.639 645.228 583.883 644.928 583.883Z" fill="#575988"/>
<path d="M640.194 587.798C639.894 587.798 639.65 587.555 639.65 587.254C639.65 586.954 639.894 586.711 640.194 586.711C640.494 586.711 640.737 586.954 640.737 587.254C640.737 587.555 640.494 587.798 640.194 587.798Z" fill="#575988"/>
<path d="M642.643 586.049C642.343 586.049 642.1 585.806 642.1 585.506C642.1 585.205 642.343 584.962 642.643 584.962C642.944 584.962 643.187 585.205 643.187 585.506C643.187 585.806 642.944 586.049 642.643 586.049Z" fill="#575988"/>
<path d="M647.354 581.559C647.054 581.559 646.811 581.316 646.811 581.015C646.811 580.715 647.054 580.472 647.354 580.472C647.655 580.472 647.898 580.715 647.898 581.015C647.898 581.316 647.655 581.559 647.354 581.559Z" fill="#575988"/>
<path d="M663.219 592.067C662.621 593.848 658.162 593.848 658.162 593.848C658.162 593.848 650.174 596.132 646.606 597.92C643.037 599.709 640.611 598.755 640.611 598.755C632.434 600.646 621.918 597.369 618.751 596.731C615.585 596.093 614.34 592.004 618.255 591.217C618.756 591.114 619.247 590.963 619.72 590.768C623.181 591.954 626.794 592.638 630.449 592.8C638.531 593.147 644.928 592.8 644.928 592.8L653.105 590.169C654.654 589.234 656.373 588.613 658.162 588.341C659.895 588.168 662.014 586.923 663.18 586.159C663.495 588.137 663.66 590.728 663.219 592.067Z" fill="#DCE6F2"/>
<path opacity="0.5" d="M642.864 597.196C642.409 597.196 641.956 597.151 641.509 597.062L641.628 596.479C643.293 596.731 644.995 596.493 646.527 595.793C647.26 595.51 647.985 595.163 648.694 594.832C649.529 594.439 650.395 594.045 651.277 593.706L652.065 593.422C652.506 593.273 652.963 593.123 653.389 592.942C653.641 592.839 653.877 592.721 654.121 592.603C654.703 592.299 655.319 592.066 655.957 591.91C656.287 591.846 656.621 591.801 656.957 591.776C657.261 591.756 657.563 591.719 657.863 591.666C658.458 591.52 659.034 591.305 659.58 591.028C660.167 590.73 660.785 590.5 661.424 590.342L661.865 590.271C662.331 590.26 662.78 590.094 663.141 589.799L663.582 590.201C663.133 590.6 662.56 590.831 661.959 590.854L661.542 590.925C660.949 591.079 660.374 591.292 659.824 591.563C659.24 591.865 658.621 592.095 657.981 592.249C657.658 592.307 657.332 592.346 657.004 592.367C656.692 592.392 656.382 592.434 656.075 592.493C655.483 592.64 654.911 592.86 654.373 593.147C654.129 593.265 653.877 593.383 653.625 593.485C653.176 593.682 652.703 593.84 652.254 593.99L651.467 594.265C650.608 594.58 649.757 594.982 648.93 595.368C648.103 595.754 647.481 596.053 646.724 596.345C645.503 596.869 644.193 597.157 642.864 597.196Z" fill="#575988"/>
<path opacity="0.1" d="M644.778 498.673C644.778 498.673 648.89 492.725 655.933 492.773C662.975 492.82 665.992 491.985 665.992 491.985C665.992 491.985 661.486 494.663 658.359 495.01C655.232 495.356 644.778 498.673 644.778 498.673Z" fill="black"/>
<path opacity="0.1" d="M647.157 500.035C647.157 500.035 650.875 497.46 653.002 497.357C655.129 497.255 656.941 497.058 656.941 497.058C655.942 497.753 654.838 498.285 653.672 498.633C651.915 499.169 647.157 500.035 647.157 500.035Z" fill="black"/>
<path opacity="0.1" d="M647.953 501.847C647.953 501.847 653.554 502.288 653.601 503.777L647.953 501.847Z" fill="black"/>
<path opacity="0.1" d="M595.773 418.236C596.064 418.291 601.074 413.037 601.421 410.95C601.698 409.637 602.482 408.488 603.603 407.751C603.603 407.751 606.825 409.043 603.95 412.998C601.074 416.952 595.773 418.236 595.773 418.236Z" fill="black"/>
<path opacity="0.1" d="M672.586 248.178C671.443 250.872 670.443 251.077 670.656 253.693C669.326 255.098 667.797 256.3 666.118 257.261C662.573 259.364 658.713 263.484 654.302 263.484C651.337 263.494 648.396 262.94 645.637 261.854C644.928 256.253 642.817 253.819 642.817 253.819C642.817 253.819 677.785 235.945 672.586 248.178Z" fill="black"/>
<path d="M677.942 238.662C677.942 243.336 676.556 247.905 673.96 251.792C671.363 255.678 667.672 258.707 663.354 260.496C659.036 262.284 654.284 262.752 649.7 261.841C645.115 260.929 640.905 258.678 637.6 255.373C634.295 252.068 632.044 247.857 631.132 243.273C630.22 238.689 630.688 233.937 632.477 229.619C634.265 225.3 637.294 221.61 641.181 219.013C645.067 216.416 649.636 215.03 654.31 215.03C660.578 215.03 666.589 217.52 671.021 221.952C675.453 226.384 677.942 232.395 677.942 238.662Z" fill="#CC818C"/>
<path opacity="0.1" d="M679.431 273.457L671.845 284.761C671.845 284.761 636.003 301.863 642.841 281.791C645.858 272.945 646.22 266.462 645.676 261.987H645.732C646.157 263.47 646.398 264.999 646.448 266.541C646.559 269.629 646.637 273.528 654.326 274.82C667.087 276.97 673.948 268.983 675.146 267.415C676.367 269.568 677.803 271.592 679.431 273.457Z" fill="black"/>
<path opacity="0.1" d="M528.547 225.499L523.82 234.724C522.315 234.597 520.831 234.287 519.401 233.802L518.992 233.306C520.922 234.046 527.468 221.702 527.468 221.702L527.672 221.868C528.208 224.026 528.547 225.499 528.547 225.499Z" fill="black"/>
<path opacity="0.1" d="M671.995 398.298C656.689 404.939 603.729 399.275 603.729 399.275C603.894 398.712 603.984 398.129 603.997 397.542C605.439 395.344 606.51 394.021 606.51 394.021L669.955 391.54C669.955 391.54 670.995 394.36 671.995 398.298Z" fill="black"/>
<path d="M645.74 262.555L638.65 265.58C637.582 265.571 636.54 265.258 635.644 264.678C634.748 264.097 634.036 263.273 633.593 262.303C631.954 258.884 626.156 262.303 626.156 262.303C626.156 262.303 608.456 260.963 601.917 264.24C601.917 264.24 591.354 259.774 589.865 259.514C588.376 259.254 586.147 258.025 585.138 258.324C584.13 258.624 582.775 256.387 581.987 256.536C581.2 256.686 580.948 255.047 578.561 254.457C576.174 253.866 575.292 254.606 572.613 251.928C569.935 249.25 548.193 238.694 548.193 238.694L538.441 230.627L528.035 222.301C528.035 222.301 521.489 234.645 519.551 233.897L539.331 257.694C539.331 257.694 553.613 270.188 563.428 274.237C573.244 278.286 572.495 279.436 572.495 279.436C572.495 279.436 602.24 294.608 606.857 294.309C611.473 294.009 610.575 325.393 608.637 330.45C606.699 335.507 603.564 372.059 603.564 372.059C603.564 372.059 600.594 379.794 603.713 385.151C603.713 385.151 604.454 396.179 603.713 398.086C603.713 398.086 657.004 403.789 672.129 397.046C672.129 397.046 674.358 372.358 672.129 369.239C669.9 366.119 674.209 359.124 674.209 359.124L683.724 337.855L706.923 314.506C706.923 314.506 710.492 295.025 694.58 282.532L684.04 273.166C684.04 273.166 678.132 268.053 676.406 267.73C674.681 267.407 675.311 267.73 675.311 267.73C675.311 267.73 668.427 277.774 654.294 275.395C646.638 274.103 646.551 270.196 646.417 267.116C646.376 265.574 646.149 264.042 645.74 262.555Z" fill="#67647E"/>
<path opacity="0.1" d="M674.815 342.613C674.815 342.613 642.1 343.952 635.554 354.216C635.554 354.216 644.03 350.199 651.616 351.388C659.202 352.578 674.815 342.613 674.815 342.613Z" fill="black"/>
<path opacity="0.1" d="M638.681 378.455C638.681 378.455 654.145 379.495 657.422 376.226C660.699 372.957 660.699 371.019 660.699 371.019L638.681 378.455Z" fill="black"/>
<path opacity="0.1" d="M677.943 311.087C677.943 311.087 664.85 326.551 680.771 333.247L677.943 311.087Z" fill="black"/>
<path opacity="0.1" d="M600.46 281.193C600.46 281.193 605.187 290.906 607.597 291.551L600.46 281.193Z" fill="black"/>
<path opacity="0.1" d="M584.398 277.025C584.398 277.025 596.293 287.739 598.522 288.779C598.522 288.779 586.178 277.025 584.398 277.025Z" fill="black"/>
<path opacity="0.1" d="M631.836 266.769C631.836 266.769 620.39 283.871 627.826 294.277C627.826 294.277 623.659 281.933 631.836 266.769Z" fill="black"/>
<path d="M660.699 396.305L657.201 399.598L656.713 400.055L652.656 403.884C652.364 404.104 652.081 404.325 651.797 404.522C635.294 416.338 631.986 398.385 631.986 398.385C631.986 398.385 624.699 403.112 623.659 399.275C622.619 395.439 640.588 389.909 643.29 390.208C643.528 390.236 643.768 390.236 644.006 390.208C645.303 389.984 646.552 389.542 647.701 388.901L648.489 388.467C649.993 387.625 651.159 386.79 651.159 386.79L660.699 396.305Z" fill="#CC818C"/>
<path opacity="0.1" d="M678.533 238.662C678.536 242.761 677.472 246.789 675.448 250.352C673.423 253.915 670.507 256.891 666.985 258.986C666.656 258.435 666.366 257.861 666.118 257.269C665.268 255.284 664.756 253.173 663.897 251.195C662.947 249.032 661.598 247.068 659.919 245.405C659.639 245.077 659.278 244.827 658.871 244.681C658.487 244.629 658.097 244.655 657.723 244.758C657.349 244.861 657 245.038 656.697 245.279C655.697 245.959 654.581 246.45 653.404 246.729C652.813 246.858 652.199 246.834 651.62 246.659C651.041 246.484 650.516 246.164 650.096 245.728C649.174 244.626 649.308 243.011 649.568 241.601C650.151 238.521 651.143 235.496 651.143 232.368C651.143 229.241 649.954 225.862 647.205 224.318C644.841 222.947 641.824 223.294 639.162 222.561C638.749 222.449 638.343 222.31 637.949 222.143C641.231 218.768 645.446 216.449 650.055 215.485C654.663 214.521 659.455 214.956 663.815 216.733C668.175 218.511 671.904 221.55 674.525 225.461C677.146 229.373 678.539 233.978 678.525 238.686L678.533 238.662Z" fill="black"/>
<path d="M636.358 218.386C635.924 218.614 635.46 219.024 635.57 219.497C635.648 219.724 635.801 219.919 636.003 220.048C637.103 220.942 638.378 221.597 639.745 221.97C642.407 222.695 645.393 222.356 647.796 223.719C650.513 225.294 651.734 228.642 651.734 231.77C651.734 234.897 650.758 237.93 650.159 241.002C649.891 242.412 649.757 244.027 650.679 245.13C651.098 245.566 651.623 245.888 652.202 246.063C652.782 246.238 653.396 246.261 653.987 246.13C655.167 245.857 656.286 245.368 657.288 244.689C657.589 244.447 657.937 244.268 658.309 244.164C658.681 244.06 659.071 244.032 659.454 244.082C659.859 244.236 660.221 244.484 660.51 244.807C662.173 246.477 663.508 248.443 664.449 250.605C665.315 252.574 665.827 254.685 666.67 256.67C667.412 258.714 668.811 260.454 670.648 261.617C672.531 262.657 675.154 262.578 676.603 260.987C678.053 259.396 677.95 257.159 678.636 255.213C679.817 251.841 683.118 249.699 685.182 246.816C687.49 243.539 688.16 239.419 688.758 235.464C689.039 234.216 689.06 232.924 688.821 231.667C688.549 230.832 688.198 230.025 687.774 229.257C685.481 224.53 685.521 218.512 681.85 214.707C679.101 211.856 674.918 210.981 670.979 210.501C667.04 210.02 662.912 209.713 659.533 207.657C658.587 206.937 657.542 206.358 656.429 205.94C655.287 205.624 653.838 205.94 653.389 207.082C653.317 207.385 653.177 207.668 652.979 207.909C652.803 208.011 652.606 208.07 652.404 208.081C652.201 208.092 651.999 208.054 651.813 207.972L646.575 206.57L647.173 209.209C645.288 209.294 643.406 208.969 641.659 208.256C641.557 209.744 643.235 210.713 643.762 212.108C643.947 212.747 643.948 213.425 643.767 214.065C643.586 214.706 643.23 215.283 642.738 215.731C640.871 217.582 638.5 217.236 636.358 218.386Z" fill="#585268"/>
<path opacity="0.1" d="M615.136 573.729L614.923 576.092L614.836 576.147C606.305 580.874 588.652 567.624 588.652 567.624L590.503 565.781C590.798 566.119 591.021 566.515 591.156 566.943C591.292 567.371 591.338 567.823 591.291 568.27L594.891 568.467L599.208 573.122C599.208 573.122 610.866 574.477 614.025 573.721L615.136 573.729Z" fill="black"/>
<path d="M613.647 586.687C608.093 587.924 588.652 587.829 588.652 587.829L577.749 589.562C577.749 589.562 559.064 591.343 556.985 585.545C554.905 579.747 558.623 580.094 558.623 580.094H558.765L566.548 579.464C566.548 579.464 576.41 575.643 580.034 573.012C582.892 570.788 585.592 568.369 588.116 565.773C588.116 565.773 591.362 565.142 591.307 568.924L594.907 569.121L599.223 573.784C599.223 573.784 610.882 575.131 614.041 574.375H615.136L614.632 580.125L614.773 580.299C615.498 581.173 618.602 585.561 613.647 586.687Z" fill="#FF748F"/>
<path d="M593.52 572.768C593.22 572.768 592.976 572.524 592.976 572.224C592.976 571.924 593.22 571.681 593.52 571.681C593.82 571.681 594.063 571.924 594.063 572.224C594.063 572.524 593.82 572.768 593.52 572.768Z" fill="#575988"/>
<path d="M579.538 578.833C579.237 578.833 578.994 578.59 578.994 578.29C578.994 577.99 579.237 577.746 579.538 577.746C579.838 577.746 580.081 577.99 580.081 578.29C580.081 578.59 579.838 578.833 579.538 578.833Z" fill="#575988"/>
<path d="M572.338 581.015C572.038 581.015 571.794 580.772 571.794 580.472C571.794 580.172 572.038 579.928 572.338 579.928C572.638 579.928 572.881 580.172 572.881 580.472C572.881 580.772 572.638 581.015 572.338 581.015Z" fill="#575988"/>
<path d="M583.208 577.675C582.908 577.675 582.665 577.432 582.665 577.132C582.665 576.832 582.908 576.588 583.208 576.588C583.509 576.588 583.752 576.832 583.752 577.132C583.752 577.432 583.509 577.675 583.208 577.675Z" fill="#575988"/>
<path d="M575.922 579.928C575.622 579.928 575.378 579.685 575.378 579.385C575.378 579.085 575.622 578.841 575.922 578.841C576.222 578.841 576.465 579.085 576.465 579.385C576.465 579.685 576.222 579.928 575.922 579.928Z" fill="#575988"/>
<path d="M586.919 575.95C586.619 575.95 586.375 575.707 586.375 575.407C586.375 575.107 586.619 574.863 586.919 574.863C587.219 574.863 587.462 575.107 587.462 575.407C587.462 575.707 587.219 575.95 586.919 575.95Z" fill="#575988"/>
<path d="M590.582 574.359C590.282 574.359 590.038 574.116 590.038 573.815C590.038 573.515 590.282 573.272 590.582 573.272C590.882 573.272 591.125 573.515 591.125 573.815C591.125 574.116 590.882 574.359 590.582 574.359Z" fill="#575988"/>
<path d="M613.647 586.687C608.093 587.924 588.652 587.829 588.652 587.829L577.749 589.562C577.749 589.562 559.064 591.343 556.985 585.545C554.905 579.747 558.623 580.094 558.623 580.094H558.765C559.962 581.63 562.349 583.387 567.044 583.473L580.483 584.017L594.41 583.024C594.41 583.024 607.447 582.63 609.574 582.189C611.361 581.706 613.1 581.066 614.773 580.275C615.498 581.173 618.602 585.561 613.647 586.687Z" fill="#DCE6F2"/>
<path opacity="0.5" d="M578.805 588.263C578.061 588.267 577.319 588.174 576.599 587.987L576.757 587.412C578.586 587.806 580.486 587.719 582.271 587.16C582.933 586.994 583.586 586.797 584.232 586.601C585.423 586.222 586.636 585.917 587.864 585.687C589.859 585.429 591.875 585.371 593.882 585.513H594.308C600.272 585.826 606.252 585.562 612.166 584.726C613.497 584.505 615.009 584.19 615.978 583.198L616.404 583.607C615.309 584.734 613.686 585.08 612.26 585.309C606.308 586.157 600.287 586.421 594.284 586.096H593.859C591.891 585.957 589.914 586.015 587.958 586.27C586.756 586.494 585.57 586.794 584.406 587.168C583.744 587.365 583.082 587.554 582.421 587.727C581.243 588.056 580.028 588.236 578.805 588.263Z" fill="#575988"/>
<path opacity="0.1" d="M660.699 396.305L657.201 399.598L648.536 388.46C650.041 387.617 651.206 386.782 651.206 386.782L660.699 396.305Z" fill="black"/>
<path d="M700.102 304.99L706.939 314.506V324.471C706.939 324.471 710.09 335.027 706.939 345.591L707.286 354.807C707.286 354.807 703.97 363.283 705.159 365.371C705.159 365.371 704.56 371.618 696.533 375.927C688.506 380.236 679.431 390.539 679.431 390.539C679.431 390.539 676.005 397.085 666.788 395.597L658.013 399.315L647.898 386.38L661.581 378.944C661.581 378.944 666.308 372.547 669.167 372.847L680.763 359.274C680.763 359.274 681.054 354.957 684.032 354.957C684.032 354.957 678.518 350.498 680.463 347.82C682.409 345.142 680.763 333.247 680.763 333.247L700.102 304.99Z" fill="#67647E"/>
<path opacity="0.1" d="M687.308 348.411C687.308 348.411 702.929 348.119 704.859 352.129C706.789 356.138 692.066 346.181 687.308 348.411Z" fill="black"/>
<path opacity="0.1" d="M656.776 399.275C656.779 399.539 656.758 399.803 656.713 400.063C656.533 401.26 655.946 402.358 655.05 403.171C654.155 403.985 653.006 404.465 651.797 404.53H651.514C650.824 404.53 650.141 404.394 649.504 404.129C648.867 403.865 648.289 403.478 647.801 402.99C647.314 402.502 646.928 401.923 646.665 401.285C646.401 400.648 646.267 399.965 646.268 399.275C646.267 398.693 646.366 398.115 646.559 397.566C644.078 395.573 643.944 391.989 644.007 390.2C645.303 389.976 646.552 389.534 647.701 388.893C648.351 390.749 649.221 392.521 650.293 394.171C651.065 393.982 651.871 393.971 652.648 394.14C653.425 394.308 654.153 394.651 654.778 395.143C655.403 395.635 655.908 396.263 656.254 396.979C656.6 397.695 656.778 398.48 656.776 399.275Z" fill="black"/>
<path d="M648.174 387.727C648.174 387.727 644.652 388.515 644.652 389.161C644.652 389.807 643.865 395.612 647.733 397.991C651.6 400.37 651.199 394.667 651.199 394.667C651.199 394.667 647.874 389.562 648.174 387.727Z" fill="#575988"/>
<path d="M652.112 404.53C649.211 404.53 646.858 402.177 646.858 399.275C646.858 396.373 649.211 394.021 652.112 394.021C655.014 394.021 657.367 396.373 657.367 399.275C657.367 402.177 655.014 404.53 652.112 404.53Z" fill="#E4AAB4"/>
<path d="M652.112 403.789C649.619 403.789 647.598 401.768 647.598 399.275C647.598 396.782 649.619 394.762 652.112 394.762C654.605 394.762 656.626 396.782 656.626 399.275C656.626 401.768 654.605 403.789 652.112 403.789Z" fill="#DCE6F2"/>
<path opacity="0.1" d="M631.639 401.308C631.639 401.308 642.746 410.532 657.02 404.679V409.146C657.02 409.146 647.504 415.684 638.902 411.722C630.3 407.759 631.639 401.308 631.639 401.308Z" fill="black"/>
<path opacity="0.1" d="M631.639 400.118C631.639 400.118 642.746 409.335 657.02 403.49V407.948C657.02 407.948 647.504 414.494 638.902 410.532C630.3 406.57 631.639 400.118 631.639 400.118Z" fill="black"/>
<path d="M631.639 400.118C631.639 400.118 642.746 409.335 657.02 403.49V407.948C657.02 407.948 647.504 414.494 638.902 410.532C630.3 406.57 631.639 400.118 631.639 400.118Z" fill="#444053"/>
<path opacity="0.05" d="M631.923 400.118C631.923 400.118 643.03 409.335 657.304 403.49V407.948C657.304 407.948 647.788 414.494 639.186 410.532C630.583 406.57 631.923 400.118 631.923 400.118Z" fill="black"/>
<path opacity="0.1" d="M596.742 565.741C596.742 565.741 611.615 568.475 613.797 569.065C615.979 569.656 613.198 570.704 613.198 570.704C613.198 570.704 599.625 568.27 596.742 565.741Z" fill="black"/>
<path opacity="0.1" d="M596.395 557.864C596.639 557.864 606.502 555.083 608.637 550.325L596.395 557.864Z" fill="black"/>
<path opacity="0.1" d="M610.788 500.949C610.788 500.949 614.781 506.204 617.365 506.062C619.949 505.92 613.135 500.752 610.788 500.949Z" fill="black"/>
<path opacity="0.1" d="M613.016 509.677C613.016 509.677 614.702 513.396 617.184 512.206L613.016 509.677Z" fill="black"/>
<path opacity="0.05" d="M622.367 428.028L632.915 455.843C632.915 455.843 634.404 437.946 631.261 432.589C630.366 431.061 629.054 429.821 627.479 429.013C625.903 428.205 624.13 427.863 622.367 428.028Z" fill="black"/>
<g opacity="0.1">
<path opacity="0.1" d="M648.331 207.649L648.237 207.247L646.543 206.79L646.732 207.625C647.264 207.665 647.798 207.673 648.331 207.649Z" fill="black"/>
<path opacity="0.1" d="M643.676 214.337L643.849 214.171C644.342 213.724 644.7 213.147 644.881 212.507C645.062 211.866 645.059 211.187 644.873 210.548C644.665 210.06 644.38 209.608 644.03 209.209C643.195 209.047 642.377 208.804 641.588 208.484C641.486 209.973 643.164 210.942 643.684 212.336C643.909 212.984 643.907 213.69 643.676 214.337Z" fill="black"/>
<path opacity="0.1" d="M671.798 260.057C669.976 258.888 668.591 257.149 667.859 255.11C667.017 253.133 666.497 251.022 665.638 249.045C664.7 246.885 663.364 244.921 661.699 243.255C661.415 242.927 661.052 242.678 660.644 242.53C660.26 242.477 659.869 242.503 659.495 242.606C659.121 242.708 658.772 242.887 658.47 243.129C657.471 243.809 656.354 244.298 655.177 244.57C654.587 244.703 653.972 244.682 653.392 244.508C652.813 244.334 652.288 244.014 651.868 243.578C650.947 242.475 651.081 240.852 651.348 239.442C651.923 236.37 652.924 233.337 652.924 230.21C652.924 227.083 651.742 223.711 649.025 222.167C646.622 220.796 643.636 221.135 640.974 220.41C639.607 220.04 638.333 219.388 637.232 218.496L637.027 218.307C636.803 218.395 636.584 218.498 636.373 218.614C635.948 218.843 635.483 219.252 635.586 219.725C635.671 219.951 635.826 220.143 636.027 220.276C637.127 221.17 638.401 221.825 639.769 222.199C642.431 222.923 645.417 222.577 647.819 223.947C650.537 225.523 651.758 228.871 651.719 231.998C651.679 235.125 650.75 238.158 650.143 241.23C649.875 242.64 649.741 244.255 650.663 245.358C651.082 245.795 651.607 246.116 652.186 246.291C652.766 246.466 653.381 246.49 653.972 246.359C655.148 246.083 656.264 245.594 657.264 244.917C657.568 244.675 657.916 244.497 658.29 244.393C658.663 244.289 659.054 244.261 659.438 244.311C659.845 244.461 660.207 244.71 660.494 245.035C662.157 246.705 663.493 248.672 664.433 250.833C665.291 252.802 665.811 254.914 666.654 256.899C667.386 258.934 668.771 260.671 670.593 261.838C672.484 262.885 675.099 262.807 676.556 261.208C676.941 260.77 677.243 260.265 677.446 259.719C676.643 260.326 675.678 260.682 674.673 260.742C673.668 260.803 672.668 260.564 671.798 260.057Z" fill="black"/>
<path opacity="0.1" d="M680.306 252.495C681.795 250.62 683.748 249.013 685.142 247.036C685.427 246.647 685.69 246.242 685.93 245.823C684.11 248.115 681.645 249.967 680.306 252.495Z" fill="black"/>
</g>
<g opacity="0.1">
<path opacity="0.2" d="M288.057 203.513L494.477 244.673V128.607L310.311 91.8823L288.057 203.513Z" fill="black"/>
</g>
<g opacity="0.2">
<path opacity="0.2" d="M139.229 112.797H457.036V226.618H139.229V112.797Z" fill="#00577F"/>
<path opacity="0.2" d="M139.229 112.805H148.682V113.592H139.229V112.805ZM158.134 112.805H167.587V113.592H158.134V112.805ZM177.04 112.805H186.493V113.592H177.04V112.805ZM195.946 112.805H205.399V113.592H195.946V112.805ZM214.852 112.805H224.305V113.592H214.852V112.805ZM233.758 112.805H243.211V113.592H233.758V112.805ZM252.664 112.805H262.117V113.592H252.664V112.805ZM271.569 112.805H281.022V113.592H271.569V112.805ZM290.475 112.805H299.928V113.592H290.475V112.805ZM309.381 112.805H318.834V113.592H309.381V112.805ZM328.287 112.805H337.74V113.592H328.287V112.805ZM347.193 112.805H356.646V113.592H347.193V112.805ZM366.099 112.805H375.551V113.592H366.099V112.805ZM385.004 112.805H394.457V113.592H385.004V112.805ZM403.91 112.805H413.363V113.592H403.91V112.805ZM422.816 112.805H432.269V113.592H422.816V112.805ZM441.722 112.805H451.175V113.592H441.722V112.805ZM456.256 116.405H457.043V125.858H456.256V116.405ZM456.256 135.311H457.043V144.763H456.256V135.311ZM456.256 154.216H457.043V163.669H456.256V154.216ZM456.256 173.122H457.043V182.575H456.256V173.122ZM456.256 192.028H457.043V201.481H456.256V192.028ZM456.256 210.934H457.043V220.387H456.256V210.934ZM444.392 225.846H453.845V226.634H444.392V225.846ZM425.486 225.846H434.939V226.634H425.486V225.846ZM406.581 225.846H416.034V226.634H406.581V225.846ZM387.675 225.846H397.128V226.634H387.675V225.846ZM368.769 225.846H378.222V226.634H368.769V225.846ZM349.863 225.846H359.316V226.634H349.863V225.846ZM330.957 225.846H340.41V226.634H330.957V225.846ZM312.052 225.846H321.504V226.634H312.052V225.846ZM293.146 225.846H302.599V226.634H293.146V225.846ZM274.24 225.846H283.693V226.634H274.24V225.846ZM255.334 225.846H264.787V226.634H255.334V225.846ZM236.428 225.846H245.881V226.634H236.428V225.846ZM217.522 225.846H226.975V226.634H217.522V225.846ZM198.617 225.846H208.07V226.634H198.617V225.846ZM179.711 225.846H189.164V226.634H179.711V225.846ZM160.805 225.846H170.258V226.634H160.805V225.846ZM141.899 225.846H151.352V226.634H141.899V225.846ZM139.237 210.39H140.024V219.843H139.237V210.39ZM139.237 191.484H140.024V200.937H139.237V191.484ZM139.237 172.579H140.024V182.032H139.237V172.579ZM139.237 153.673H140.024V163.126H139.237V153.673ZM139.237 134.767H140.024V144.22H139.237V134.767ZM139.237 115.861H140.024V125.314H139.237V115.861Z" fill="#00577F"/>
</g>
<g opacity="0.2">
<path opacity="0.2" d="M139.229 406.168H457.036V519.989H139.229V406.168Z" fill="#00577F"/>
<path opacity="0.2" d="M139.229 406.176H148.682V406.964H139.229V406.176ZM158.134 406.176H167.587V406.964H158.134V406.176ZM177.04 406.176H186.493V406.964H177.04V406.176ZM195.946 406.176H205.399V406.964H195.946V406.176ZM214.852 406.176H224.305V406.964H214.852V406.176ZM233.758 406.176H243.211V406.964H233.758V406.176ZM252.664 406.176H262.117V406.964H252.664V406.176ZM271.569 406.176H281.022V406.964H271.569V406.176ZM290.475 406.176H299.928V406.964H290.475V406.176ZM309.381 406.176H318.834V406.964H309.381V406.176ZM328.287 406.176H337.74V406.964H328.287V406.176ZM347.193 406.176H356.646V406.964H347.193V406.176ZM366.099 406.176H375.551V406.964H366.099V406.176ZM385.004 406.176H394.457V406.964H385.004V406.176ZM403.91 406.176H413.363V406.964H403.91V406.176ZM422.816 406.176H432.269V406.964H422.816V406.176ZM441.722 406.176H451.175V406.964H441.722V406.176ZM456.256 409.768H457.043V419.221H456.256V409.768ZM456.256 428.674H457.043V438.127H456.256V428.674ZM456.256 447.58H457.043V457.033H456.256V447.58ZM456.256 466.485H457.043V475.938H456.256V466.485ZM456.256 485.391H457.043V494.844H456.256V485.391ZM456.256 504.297H457.043V513.75H456.256V504.297ZM444.392 519.209H453.845V519.997H444.392V519.209ZM425.486 519.209H434.939V519.997H425.486V519.209ZM406.581 519.209H416.034V519.997H406.581V519.209ZM387.675 519.209H397.128V519.997H387.675V519.209ZM368.769 519.209H378.222V519.997H368.769V519.209ZM349.863 519.209H359.316V519.997H349.863V519.209ZM330.957 519.209H340.41V519.997H330.957V519.209ZM312.052 519.209H321.504V519.997H312.052V519.209ZM293.146 519.209H302.599V519.997H293.146V519.209ZM274.24 519.209H283.693V519.997H274.24V519.209ZM255.334 519.209H264.787V519.997H255.334V519.209ZM236.428 519.209H245.881V519.997H236.428V519.209ZM217.522 519.209H226.975V519.997H217.522V519.209ZM198.617 519.209H208.07V519.997H198.617V519.209ZM179.711 519.209H189.164V519.997H179.711V519.209ZM160.805 519.209H170.258V519.997H160.805V519.209ZM141.899 519.209H151.352V519.997H141.899V519.209ZM139.237 503.754H140.024V513.207H139.237V503.754ZM139.237 484.848H140.024V494.301H139.237V484.848ZM139.237 465.942H140.024V475.395H139.237V465.942ZM139.237 447.036H140.024V456.489H139.237V447.036ZM139.237 428.13H140.024V437.583H139.237V428.13ZM139.237 409.224H140.024V418.677H139.237V409.224Z" fill="#00577F"/>
</g>
<path d="M323.555 84.0783L635.223 146.243L612.959 257.865L301.291 195.701L323.555 84.0783Z" fill="#F6F7F9"/>
<path opacity="0.4" d="M323.555 84.0783L635.223 146.243L612.959 257.865L301.291 195.701L323.555 84.0783Z" fill="#00577F"/>
<path d="M511.098 142.81C512.108 144.569 512.512 146.612 512.248 148.623C510.246 148.179 508.495 146.97 507.37 145.255C506.245 143.539 505.833 141.453 506.222 139.438C508.173 139.998 509.886 141.183 511.098 142.81Z" fill="#F6F7F9"/>
<path d="M387.943 120.745C386.696 122.345 384.958 123.491 382.996 124.006C382.65 121.985 383.107 119.908 384.27 118.217C385.432 116.527 387.207 115.357 389.219 114.955C389.44 116.973 388.991 119.007 387.943 120.745Z" fill="#F6F7F9"/>
<path d="M433.356 119.611C433.609 120.98 433.404 122.395 432.773 123.636C431.578 122.89 430.721 121.707 430.386 120.338C430.05 118.97 430.262 117.524 430.977 116.31C432.11 117.12 432.946 118.28 433.356 119.611Z" fill="#F6F7F9"/>
<path d="M490.846 172.878C491.098 174.25 490.893 175.667 490.263 176.911C489.067 176.164 488.21 174.979 487.875 173.609C487.539 172.239 487.752 170.793 488.467 169.577C489.6 170.387 490.436 171.547 490.846 172.878Z" fill="#F6F7F9"/>
<path d="M460.983 182.835C460.293 184.047 459.225 184.999 457.942 185.545C457.505 184.204 457.609 182.746 458.231 181.481C458.854 180.215 459.945 179.243 461.274 178.77C461.626 180.12 461.524 181.549 460.983 182.835Z" fill="#F6F7F9"/>
<path d="M471.948 143.038C471.597 145.039 470.598 146.869 469.104 148.245C467.85 146.62 467.28 144.569 467.516 142.53C467.751 140.491 468.773 138.624 470.364 137.327C471.503 139.006 472.06 141.013 471.948 143.038Z" fill="#F6F7F9"/>
<path d="M434.278 144.866C435.249 146.647 435.609 148.698 435.302 150.703C433.307 150.216 431.582 148.969 430.493 147.228C429.404 145.488 429.038 143.391 429.472 141.384C431.413 141.985 433.102 143.209 434.278 144.866Z" fill="#F6F7F9"/>
<path d="M352.235 192.983C335.079 189.561 321.641 184.435 322.22 181.534C322.798 178.633 337.175 179.055 354.331 182.476C371.487 185.898 384.925 191.024 384.346 193.925C383.768 196.827 369.391 196.405 352.235 192.983Z" fill="#F6F7F9"/>
<path d="M342.159 176.612C340.972 175.175 340.252 173.411 340.095 171.555C340.095 169.703 341.245 167.726 343.073 167.411C345.113 167.064 346.886 168.79 348.154 170.428C349.422 172.067 350.895 173.934 352.967 174.052C352.117 172.907 351.579 171.561 351.405 170.146C351.231 168.73 351.427 167.294 351.974 165.977C352.174 165.428 352.52 164.943 352.975 164.575C354.251 163.654 356.071 164.52 357.158 165.662C360.608 169.286 360.64 174.973 359.686 179.889C360.474 178.195 360.474 176.281 360.844 174.461C361.215 172.642 362.113 170.735 363.846 170.066C364.901 169.738 366.024 169.699 367.099 169.956C368.919 170.247 370.896 170.83 371.825 172.397C373.031 174.343 372.085 177.014 370.392 178.558C368.698 180.102 366.453 180.826 364.326 181.709C362.652 182.303 361.133 183.267 359.883 184.529C359.729 184.708 359.594 184.904 359.482 185.112L348.162 182.851C345.888 181.052 343.869 178.953 342.159 176.612Z" fill="#F6F7F9"/>
<path d="M563.389 228.264C563.389 228.264 572.385 211.123 568.683 196.439C567.095 190.293 567.543 183.798 569.959 177.927C571.126 175.152 572.544 172.488 574.197 169.971" stroke="#F6F7F9" stroke-miterlimit="10"/>
<path d="M571.92 160.739C571.471 162.968 574.228 170.247 574.228 170.247C574.228 170.247 579.561 164.583 580.002 162.37C580.128 161.83 580.144 161.271 580.048 160.726C579.953 160.181 579.749 159.66 579.448 159.195C579.147 158.731 578.755 158.332 578.297 158.022C577.838 157.712 577.322 157.497 576.778 157.391C576.235 157.285 575.676 157.29 575.134 157.405C574.593 157.52 574.08 157.743 573.626 158.061C573.173 158.378 572.788 158.784 572.495 159.254C572.202 159.723 572.006 160.247 571.92 160.794V160.739Z" fill="#F6F7F9"/>
<path d="M562.775 171.767C563.61 173.886 569.864 178.503 569.864 178.503C569.864 178.503 571.259 170.846 570.416 168.727C570.223 168.215 569.93 167.746 569.554 167.349C569.178 166.951 568.727 166.633 568.226 166.412C567.726 166.19 567.186 166.071 566.639 166.061C566.092 166.05 565.549 166.149 565.04 166.351C564.532 166.553 564.068 166.854 563.678 167.237C563.287 167.62 562.976 168.077 562.764 168.581C562.551 169.085 562.442 169.626 562.441 170.174C562.44 170.721 562.548 171.262 562.759 171.767H562.775Z" fill="#F6F7F9"/>
<path d="M558.852 192.958C560.648 194.36 568.383 195.179 568.383 195.179C568.383 195.179 565.721 187.869 563.933 186.467C563.072 185.793 561.979 185.489 560.894 185.621C559.808 185.753 558.82 186.311 558.147 187.172C557.473 188.032 557.169 189.126 557.301 190.211C557.433 191.296 557.991 192.284 558.852 192.958Z" fill="#F6F7F9"/>
<path d="M559.498 209.658C561.026 211.343 568.509 213.463 568.509 213.463C568.509 213.463 567.131 205.806 565.595 204.12C565.245 203.676 564.808 203.309 564.311 203.042C563.814 202.774 563.267 202.612 562.705 202.564C562.142 202.517 561.576 202.586 561.041 202.766C560.506 202.947 560.014 203.235 559.595 203.614C559.176 203.993 558.84 204.453 558.607 204.968C558.373 205.482 558.248 206.038 558.239 206.603C558.23 207.167 558.337 207.728 558.553 208.249C558.77 208.771 559.091 209.242 559.498 209.634V209.658Z" fill="#F6F7F9"/>
<path d="M578.277 180.622C576.371 181.858 568.588 181.984 568.588 181.984C568.588 181.984 571.889 174.942 573.803 173.705C574.72 173.142 575.821 172.96 576.87 173.198C577.919 173.436 578.833 174.075 579.418 174.978C580.002 175.882 580.21 176.978 579.997 178.032C579.784 179.087 579.167 180.016 578.277 180.622Z" fill="#F6F7F9"/>
<path d="M578.781 200.165C576.591 200.772 569.131 198.59 569.131 198.59C569.131 198.59 574.386 192.855 576.583 192.241C577.105 192.096 577.651 192.056 578.188 192.123C578.725 192.189 579.244 192.361 579.715 192.628C580.187 192.895 580.6 193.252 580.933 193.679C581.267 194.106 581.512 194.594 581.657 195.116C581.801 195.638 581.841 196.183 581.775 196.721C581.708 197.258 581.537 197.777 581.27 198.248C581.003 198.719 580.645 199.133 580.218 199.466C579.792 199.799 579.303 200.045 578.781 200.189V200.165Z" fill="#F6F7F9"/>
<path d="M576.67 219.221C574.606 220.198 566.879 219.276 566.879 219.276C566.879 219.276 571.093 212.738 573.181 211.769C574.166 211.324 575.287 211.284 576.301 211.657C577.316 212.031 578.143 212.788 578.604 213.766C579.065 214.744 579.123 215.864 578.766 216.885C578.408 217.905 577.664 218.744 576.694 219.221H576.67Z" fill="#F6F7F9"/>
<path d="M533.675 189.452C533.675 189.452 531.147 191.681 533.289 196.227C535.432 200.772 537.189 204.6 535.716 206.877C535.716 206.877 532.754 198.637 529.177 197.818C525.601 196.999 528.831 193.092 533.675 189.452Z" fill="#F6F7F9"/>
<path opacity="0.1" d="M533.675 189.452C533.452 189.676 533.258 189.927 533.1 190.2C528.767 193.627 526.121 197.109 529.484 197.873C532.635 198.598 535.266 204.963 535.889 206.578C535.834 206.68 535.778 206.782 535.715 206.877C535.652 206.972 532.753 198.637 529.177 197.818C525.601 196.999 528.831 193.092 533.675 189.452Z" fill="black"/>
<path d="M529.28 192.028C529.091 192.95 529.051 193.722 529.177 193.745C529.303 193.769 529.555 193.044 529.744 192.115C529.933 191.185 529.744 191.603 529.579 191.579C529.413 191.555 529.461 191.13 529.28 192.028Z" fill="#F6F7F9"/>
<path d="M527.775 192.902C528.5 193.509 529.153 193.919 529.24 193.816C529.327 193.714 528.807 193.147 528.082 192.54C527.357 191.934 527.617 192.327 527.531 192.422C527.444 192.516 527.058 192.304 527.775 192.902Z" fill="#F6F7F9"/>
<path d="M544.278 191.571C544.278 191.571 545.759 194.596 542.041 197.976C538.323 201.355 535.227 204.214 535.739 206.877C535.739 206.877 541.632 200.402 545.255 201.016C548.879 201.631 547.359 196.755 544.278 191.571Z" fill="#F6F7F9"/>
<path opacity="0.1" d="M544.278 191.571C544.404 191.859 544.487 192.165 544.522 192.477C547.216 197.306 548.319 201.528 544.924 200.953C541.773 200.418 536.858 205.294 535.668 206.53C535.676 206.647 535.691 206.763 535.715 206.877C535.715 206.877 541.608 200.402 545.231 201.016C548.855 201.631 547.358 196.755 544.278 191.571Z" fill="black"/>
<path d="M547.343 195.66C547.162 196.581 546.902 197.314 546.776 197.282C546.65 197.251 546.697 196.495 546.878 195.565C547.059 194.635 547.106 195.1 547.232 195.132C547.358 195.163 547.524 194.738 547.343 195.66Z" fill="#F6F7F9"/>
<path d="M548.422 197.014C547.516 197.298 546.76 197.424 546.72 197.298C546.681 197.172 547.382 196.849 548.296 196.565C549.209 196.282 548.808 196.565 548.847 196.668C548.886 196.77 549.304 196.754 548.422 197.014Z" fill="#F6F7F9"/>
<path d="M562.192 233.255C550.058 230.835 540.553 227.209 540.962 225.157C541.371 223.105 551.54 223.403 563.674 225.823C575.808 228.243 585.313 231.869 584.903 233.921C584.494 235.973 574.326 235.675 562.192 233.255Z" fill="#F6F7F9"/>
<path d="M535.023 210.851C526.409 209.132 519.661 206.56 519.951 205.105C520.241 203.65 527.459 203.864 536.074 205.582C544.688 207.3 551.436 209.872 551.145 211.327C550.855 212.782 543.637 212.569 535.023 210.851Z" fill="#F6F7F9"/>
<path d="M452.782 196.328C446.877 195.15 442.252 193.386 442.451 192.388C442.65 191.389 447.598 191.535 453.503 192.713C459.408 193.89 464.033 195.654 463.834 196.653C463.635 197.651 458.687 197.506 452.782 196.328Z" fill="#F6F7F9"/>
<path d="M409.561 177.355C404.894 176.424 401.238 175.03 401.395 174.24C401.553 173.451 405.464 173.566 410.132 174.497C414.799 175.428 418.455 176.822 418.298 177.612C418.141 178.401 414.229 178.286 409.561 177.355Z" fill="#F6F7F9"/>
<path d="M492.573 218.255C483.959 216.537 477.211 213.964 477.501 212.509C477.791 211.055 485.01 211.268 493.624 212.986C502.238 214.704 508.986 217.277 508.696 218.731C508.406 220.186 501.187 219.973 492.573 218.255Z" fill="#F6F7F9"/>
<path d="M428.419 208.199C419.805 206.481 413.057 203.908 413.347 202.454C413.637 200.999 420.855 201.212 429.47 202.93C438.084 204.648 444.832 207.221 444.541 208.676C444.251 210.13 437.033 209.917 428.419 208.199Z" fill="#F6F7F9"/>
<path d="M333.529 97.8299L367.906 104.687L366.331 112.582L331.954 105.725L333.529 97.8299Z" fill="#F6F7F9"/>
<path d="M306.742 318.855L307.759 317.846C307.864 317.744 307.948 317.622 308.006 317.486C308.063 317.351 308.093 317.206 308.093 317.059C308.093 316.912 308.063 316.766 308.006 316.631C307.948 316.495 307.864 316.373 307.759 316.271L298.904 307.417C298.802 307.311 298.68 307.227 298.545 307.169C298.409 307.112 298.264 307.082 298.117 307.082C297.97 307.082 297.824 307.112 297.689 307.169C297.553 307.227 297.431 307.311 297.329 307.417L288.483 316.263C288.377 316.365 288.293 316.487 288.235 316.623C288.178 316.758 288.148 316.904 288.148 317.051C288.148 317.198 288.178 317.343 288.235 317.479C288.293 317.614 288.377 317.736 288.483 317.838L289.522 318.855C289.624 318.96 289.747 319.045 289.882 319.102C290.018 319.159 290.163 319.189 290.31 319.189C290.457 319.189 290.603 319.159 290.738 319.102C290.873 319.045 290.996 318.96 291.098 318.855L296.321 313.34V326.433C296.32 326.576 296.347 326.718 296.401 326.851C296.455 326.984 296.535 327.105 296.636 327.206C296.737 327.308 296.857 327.389 296.99 327.444C297.122 327.499 297.264 327.528 297.408 327.528H298.865C299.155 327.528 299.434 327.412 299.639 327.207C299.845 327.002 299.96 326.723 299.96 326.433V313.38L305.191 318.894C305.294 318.996 305.416 319.075 305.551 319.129C305.686 319.182 305.83 319.207 305.975 319.204C306.12 319.2 306.262 319.167 306.394 319.107C306.526 319.047 306.644 318.961 306.742 318.855Z" fill="#F6F7F9"/>
<path d="M298.132 299.405C294.58 299.404 291.106 300.456 288.152 302.428C285.197 304.401 282.894 307.205 281.533 310.487C280.173 313.769 279.816 317.38 280.508 320.865C281.2 324.349 282.91 327.55 285.422 330.063C287.933 332.576 291.133 334.287 294.618 334.981C298.102 335.674 301.713 335.319 304.996 333.96C308.278 332.601 311.084 330.299 313.057 327.345C315.031 324.391 316.085 320.918 316.085 317.366C316.081 312.605 314.188 308.04 310.823 304.673C307.457 301.306 302.893 299.412 298.132 299.405ZM298.132 297.042C302.152 297.04 306.082 298.231 309.426 300.463C312.769 302.696 315.375 305.869 316.915 309.583C318.454 313.296 318.858 317.383 318.074 321.326C317.291 325.269 315.356 328.891 312.514 331.734C309.672 334.577 306.051 336.514 302.108 337.298C298.165 338.083 294.078 337.681 290.364 336.143C286.65 334.605 283.476 332 281.242 328.658C279.009 325.315 277.816 321.386 277.816 317.366C277.815 314.697 278.34 312.055 279.361 309.589C280.381 307.123 281.877 304.883 283.764 302.995C285.651 301.108 287.89 299.611 290.356 298.589C292.821 297.568 295.464 297.042 298.132 297.042Z" fill="#F6F7F9"/>
<path d="M306.742 464.587L307.759 463.579C307.864 463.477 307.948 463.354 308.006 463.219C308.063 463.084 308.093 462.938 308.093 462.791C308.093 462.644 308.063 462.498 308.006 462.363C307.948 462.228 307.864 462.105 307.759 462.003L298.904 453.149C298.802 453.043 298.68 452.959 298.545 452.902C298.409 452.844 298.264 452.815 298.117 452.815C297.97 452.815 297.824 452.844 297.689 452.902C297.553 452.959 297.431 453.043 297.329 453.149L288.483 461.995C288.377 462.098 288.293 462.22 288.235 462.355C288.178 462.491 288.148 462.636 288.148 462.783C288.148 462.93 288.178 463.076 288.235 463.211C288.293 463.346 288.377 463.469 288.483 463.571L289.522 464.587C289.625 464.692 289.748 464.775 289.883 464.832C290.018 464.889 290.163 464.918 290.31 464.918C290.457 464.918 290.602 464.889 290.737 464.832C290.873 464.775 290.995 464.692 291.098 464.587L296.344 459.073V472.165C296.344 472.456 296.46 472.734 296.665 472.939C296.87 473.145 297.149 473.26 297.439 473.26H298.865C299.008 473.26 299.15 473.232 299.283 473.177C299.415 473.121 299.535 473.041 299.636 472.939C299.738 472.837 299.817 472.716 299.872 472.584C299.926 472.451 299.953 472.309 299.952 472.165V459.073L305.183 464.587C305.283 464.692 305.404 464.776 305.538 464.833C305.673 464.891 305.817 464.92 305.963 464.92C306.108 464.92 306.253 464.891 306.387 464.833C306.521 464.776 306.642 464.692 306.742 464.587Z" fill="#F6F7F9"/>
<path d="M298.132 445.13C294.579 445.128 291.106 446.18 288.151 448.153C285.196 450.126 282.893 452.931 281.532 456.213C280.172 459.496 279.816 463.108 280.509 466.592C281.201 470.077 282.912 473.278 285.424 475.79C287.937 478.303 291.138 480.013 294.622 480.706C298.107 481.399 301.719 481.043 305.001 479.682C308.283 478.322 311.088 476.019 313.061 473.064C315.034 470.109 316.086 466.635 316.085 463.082C316.079 458.323 314.185 453.76 310.82 450.395C307.454 447.029 302.892 445.136 298.132 445.13ZM298.132 442.767C302.153 442.765 306.083 443.956 309.426 446.188C312.77 448.421 315.376 451.595 316.915 455.309C318.455 459.023 318.858 463.11 318.074 467.053C317.29 470.997 315.354 474.619 312.511 477.461C309.668 480.304 306.046 482.24 302.103 483.024C298.16 483.808 294.073 483.405 290.359 481.866C286.645 480.326 283.471 477.72 281.238 474.377C279.006 471.033 277.815 467.103 277.816 463.082C277.816 457.694 279.957 452.527 283.767 448.717C287.577 444.907 292.744 442.767 298.132 442.767Z" fill="#F6F7F9"/>
<path d="M-13.8375 499.823C-13.8375 499.823 -19.462 507.172 -11.2458 518.264C-3.02964 529.355 3.72132 538.745 1.0036 545.646C1.0036 545.646 -11.3876 525.038 -21.4786 524.755C-31.5696 524.471 -24.9368 512.214 -13.8375 499.823Z" fill="#00577F"/>
<path opacity="0.1" d="M-13.8375 499.823C-14.3284 500.531 -14.7156 501.305 -14.9876 502.123C-24.8344 513.687 -30.0729 524.479 -20.6121 524.755C-11.7972 525.007 -1.22568 540.762 1.30298 544.74C1.2234 545.048 1.1234 545.351 1.00363 545.646C1.00363 545.646 -11.3876 525.038 -21.4786 524.755C-31.5696 524.471 -24.9368 512.214 -13.8375 499.823Z" fill="black"/>
<path d="M15.8524 499.823C15.8524 499.823 21.469 507.172 13.2529 518.264C5.03671 529.355 -1.71423 538.745 1.00348 545.646C1.00348 545.646 13.3946 525.038 23.4856 524.755C33.5766 524.471 26.9359 512.214 15.8524 499.823Z" fill="#00577F"/>
<path opacity="0.1" d="M15.8524 499.823C16.3385 500.532 16.723 501.307 16.9946 502.123C26.8414 513.687 32.0799 524.479 22.6191 524.755C13.8122 525.007 3.23276 540.762 0.704102 544.74C0.78726 545.047 0.887196 545.35 1.00345 545.646C1.00345 545.646 13.3946 525.038 23.4856 524.755C33.5766 524.471 26.9359 512.214 15.8524 499.823Z" fill="black"/>
<path d="M26.2981 509.189C26.2981 511.773 26.0066 513.868 25.6521 513.868C25.2976 513.868 24.9983 511.773 24.9983 509.189C24.9983 506.605 25.3607 507.818 25.7231 507.818C26.0854 507.818 26.2981 506.597 26.2981 509.189Z" fill="#FFD037"/>
<path d="M29.8822 512.277C27.6135 513.514 25.6284 514.262 25.4629 513.947C25.2975 513.632 26.9912 512.372 29.2599 511.135C31.5286 509.898 30.6384 510.804 30.8354 511.135C31.0323 511.466 32.1509 511.064 29.8822 512.277Z" fill="#FFD037"/>
<path opacity="0.1" d="M1.00344 601.875C-31.4519 601.875 -57.7622 597.837 -57.7622 592.855C-57.7622 587.874 -31.4519 583.836 1.00344 583.836C33.4588 583.836 59.769 587.874 59.769 592.855C59.769 597.837 33.4588 601.875 1.00344 601.875Z" fill="#00577F"/>
<path d="M-29.2457 535.744L-28.9621 538.036L-28.5682 541.282L-28.4028 542.629L-28.009 545.874L-27.8357 547.229L-27.4182 550.451L-22.9202 587.317C-22.5184 590.61 -17.146 593.17 -10.655 593.17H12.7094C19.2004 593.17 24.5728 590.61 24.9746 587.317L29.449 550.451L29.8507 547.213L30.0083 545.858L30.41 542.613L30.5754 541.266L30.9693 538.02L31.2529 535.728C31.4734 533.869 28.5667 532.294 24.8958 532.294H-22.8965C-26.5595 532.333 -29.4741 533.908 -29.2457 535.744Z" fill="#65617D"/>
<path d="M-28.9622 538.036L-28.5683 541.274H30.5754L30.9692 538.036H-28.9622Z" fill="#9D9CB5"/>
<path d="M-28.4029 542.629L-28.009 545.874H30.0082L30.4099 542.629H-28.4029Z" fill="#9D9CB5"/>
<path d="M-27.8357 547.221L-27.4418 550.467H29.4489L29.8428 547.221H-27.8357Z" fill="#9D9CB5"/>
</g>
<defs>
<linearGradient id="paint0_linear" x1="298.132" y1="555.721" x2="298.132" y2="0" gradientUnits="userSpaceOnUse">
<stop stop-color="#808080" stop-opacity="0.25"/>
<stop offset="0.54" stop-color="#808080" stop-opacity="0.12"/>
<stop offset="1" stop-color="#808080" stop-opacity="0.1"/>
</linearGradient>
<linearGradient id="paint1_linear" x1="205000" y1="329286" x2="205000" y2="124338" gradientUnits="userSpaceOnUse">
<stop stop-color="#808080" stop-opacity="0.25"/>
<stop offset="0.54" stop-color="#808080" stop-opacity="0.12"/>
<stop offset="1" stop-color="#808080" stop-opacity="0.1"/>
</linearGradient>
<clipPath id="clip0">
<rect width="800" height="617.22" transform="matrix(-1 0 0 1 720 0)" fill="white"/>
</clipPath>
</defs>
</svg>
