<svg width="50" height="50" viewBox="0 0 50 50" fill="none" xmlns="http://www.w3.org/2000/svg">
<rect width="49.8378" height="50" fill="#F6F6F6"/>
<path d="M37.8242 25.2432C37.8242 24.178 37.7363 23.4007 37.5461 22.5946H25.1763V27.4024H32.4371C32.2907 28.5972 31.5002 30.3966 29.7435 31.6057L29.7189 31.7666L33.63 34.746L33.901 34.7726C36.3895 32.5126 37.8242 29.1874 37.8242 25.2432Z" fill="#4285F4"/>
<path d="M25.1764 37.9107C28.7336 37.9107 31.7199 36.7591 33.9011 34.7727L29.7437 31.6057C28.6312 32.3686 27.138 32.9012 25.1764 32.9012C21.6924 32.9012 18.7354 30.6413 17.6813 27.5176L17.5267 27.5305L13.4599 30.6254L13.4067 30.7708C15.5733 35.0029 20.0235 37.9107 25.1764 37.9107Z" fill="#34A853"/>
<path d="M17.681 27.5176C17.4029 26.7115 17.2419 25.8478 17.2419 24.9553C17.2419 24.0628 17.4029 23.1992 17.6664 22.3931L17.659 22.2214L13.5412 19.0768L13.4065 19.1398C12.5136 20.896 12.0012 22.8681 12.0012 24.9553C12.0012 27.0426 12.5136 29.0146 13.4065 30.7708L17.681 27.5176Z" fill="#FBBC05"/>
<path d="M25.1764 17.0094C27.6503 17.0094 29.3191 18.0602 30.2706 18.9383L33.9889 15.3684C31.7053 13.2811 28.7336 12 25.1764 12C20.0235 12 15.5733 14.9077 13.4067 19.1398L17.6666 22.3931C18.7353 19.2694 21.6924 17.0094 25.1764 17.0094Z" fill="#EB4335"/>
</svg>
