<svg width="158" height="40" viewBox="0 0 158 40" fill="none" xmlns="http://www.w3.org/2000/svg">
<path d="M29.844 32C29.436 32 29.1 31.88 28.836 31.64C28.572 31.376 28.44 31.04 28.44 30.632V20.264C28.44 18.56 27.996 17.216 27.108 16.232C26.22 15.224 25.08 14.72 23.688 14.72C22.2 14.72 20.976 15.224 20.016 16.232C19.08 17.216 18.624 18.536 18.648 20.192H16.164C16.188 18.584 16.536 17.168 17.208 15.944C17.88 14.72 18.804 13.772 19.98 13.1C21.156 12.428 22.488 12.092 23.976 12.092C25.392 12.092 26.64 12.428 27.72 13.1C28.824 13.772 29.676 14.72 30.276 15.944C30.9 17.168 31.212 18.608 31.212 20.264V30.632C31.212 31.04 31.08 31.376 30.816 31.64C30.576 31.88 30.252 32 29.844 32ZM4.644 32C4.212 32 3.864 31.88 3.6 31.64C3.36 31.376 3.24 31.04 3.24 30.632V13.712C3.24 13.304 3.36 12.968 3.6 12.704C3.864 12.44 4.212 12.308 4.644 12.308C5.052 12.308 5.376 12.44 5.616 12.704C5.88 12.968 6.012 13.304 6.012 13.712V30.632C6.012 31.04 5.88 31.376 5.616 31.64C5.376 31.88 5.052 32 4.644 32ZM17.28 32C16.872 32 16.536 31.88 16.272 31.64C16.008 31.376 15.876 31.04 15.876 30.632V20.264C15.876 18.56 15.432 17.216 14.544 16.232C13.656 15.224 12.516 14.72 11.124 14.72C9.636 14.72 8.412 15.212 7.452 16.196C6.492 17.156 6.012 18.416 6.012 19.976H4.032C4.08 18.44 4.416 17.084 5.04 15.908C5.688 14.708 6.564 13.772 7.668 13.1C8.772 12.428 10.02 12.092 11.412 12.092C12.828 12.092 14.076 12.428 15.156 13.1C16.26 13.772 17.112 14.72 17.712 15.944C18.336 17.168 18.648 18.608 18.648 20.264V30.632C18.648 31.04 18.516 31.376 18.252 31.64C18.012 31.88 17.688 32 17.28 32ZM46.0176 32.18C44.1696 32.18 42.5136 31.748 41.0496 30.884C39.5856 29.996 38.4216 28.796 37.5576 27.284C36.7176 25.772 36.2976 24.068 36.2976 22.172C36.2976 20.252 36.7296 18.536 37.5936 17.024C38.4816 15.512 39.6816 14.324 41.1936 13.46C42.7056 12.572 44.4096 12.128 46.3056 12.128C48.2016 12.128 49.8936 12.572 51.3816 13.46C52.8936 14.324 54.0816 15.512 54.9456 17.024C55.8336 18.536 56.2896 20.252 56.3136 22.172L55.1976 23.036C55.1976 24.764 54.7896 26.324 53.9736 27.716C53.1816 29.084 52.0896 30.176 50.6976 30.992C49.3296 31.784 47.7696 32.18 46.0176 32.18ZM46.3056 29.66C47.6976 29.66 48.9336 29.336 50.0136 28.688C51.1176 28.04 51.9816 27.152 52.6056 26.024C53.2536 24.872 53.5776 23.588 53.5776 22.172C53.5776 20.732 53.2536 19.448 52.6056 18.32C51.9816 17.192 51.1176 16.304 50.0136 15.656C48.9336 14.984 47.6976 14.648 46.3056 14.648C44.9376 14.648 43.7016 14.984 42.5976 15.656C41.4936 16.304 40.6176 17.192 39.9696 18.32C39.3216 19.448 38.9976 20.732 38.9976 22.172C38.9976 23.588 39.3216 24.872 39.9696 26.024C40.6176 27.152 41.4936 28.04 42.5976 28.688C43.7016 29.336 44.9376 29.66 46.3056 29.66ZM54.9096 32C54.5016 32 54.1656 31.88 53.9016 31.64C53.6376 31.376 53.5056 31.04 53.5056 30.632V24.476L54.1896 21.632L56.3136 22.172V30.632C56.3136 31.04 56.1816 31.376 55.9176 31.64C55.6536 31.88 55.3176 32 54.9096 32ZM69.4088 32C68.1368 32 66.9968 31.7 65.9888 31.1C65.0048 30.5 64.2248 29.684 63.6488 28.652C63.0728 27.596 62.7848 26.396 62.7848 25.052V7.448C62.7848 7.04 62.9048 6.704 63.1448 6.44C63.4088 6.176 63.7448 6.044 64.1528 6.044C64.5608 6.044 64.8968 6.176 65.1608 6.44C65.4248 6.704 65.5568 7.04 65.5568 7.448V25.052C65.5568 26.276 65.9168 27.284 66.6368 28.076C67.3568 28.844 68.2808 29.228 69.4088 29.228H70.3808C70.7648 29.228 71.0768 29.36 71.3168 29.624C71.5568 29.888 71.6768 30.224 71.6768 30.632C71.6768 31.04 71.5328 31.376 71.2448 31.64C70.9568 31.88 70.5968 32 70.1648 32H69.4088ZM60.4448 15.44C60.0848 15.44 59.7848 15.332 59.5448 15.116C59.3048 14.876 59.1848 14.588 59.1848 14.252C59.1848 13.892 59.3048 13.604 59.5448 13.388C59.7848 13.148 60.0848 13.028 60.4448 13.028H69.6248C69.9848 13.028 70.2848 13.148 70.5248 13.388C70.7648 13.604 70.8848 13.892 70.8848 14.252C70.8848 14.588 70.7648 14.876 70.5248 15.116C70.2848 15.332 69.9848 15.44 69.6248 15.44H60.4448ZM84.9732 32.18C83.0772 32.18 81.3852 31.748 79.8972 30.884C78.4332 29.996 77.2692 28.796 76.4052 27.284C75.5652 25.772 75.1452 24.068 75.1452 22.172C75.1452 20.252 75.5532 18.536 76.3692 17.024C77.1852 15.512 78.3012 14.324 79.7172 13.46C81.1332 12.572 82.7652 12.128 84.6132 12.128C86.0772 12.128 87.4212 12.416 88.6452 12.992C89.8932 13.568 90.9852 14.432 91.9212 15.584C92.1852 15.872 92.2812 16.184 92.2092 16.52C92.1372 16.832 91.9332 17.108 91.5972 17.348C91.3332 17.54 91.0332 17.612 90.6972 17.564C90.3852 17.492 90.1092 17.312 89.8692 17.024C88.4772 15.44 86.7252 14.648 84.6132 14.648C83.2692 14.648 82.0812 14.972 81.0492 15.62C80.0412 16.268 79.2492 17.156 78.6732 18.284C78.1212 19.412 77.8452 20.708 77.8452 22.172C77.8452 23.612 78.1452 24.896 78.7452 26.024C79.3452 27.152 80.1852 28.04 81.2652 28.688C82.3452 29.336 83.5812 29.66 84.9732 29.66C85.9092 29.66 86.7612 29.54 87.5292 29.3C88.3212 29.036 89.0172 28.64 89.6172 28.112C89.9052 27.872 90.2052 27.74 90.5172 27.716C90.8292 27.692 91.1172 27.788 91.3812 28.004C91.6692 28.268 91.8252 28.568 91.8492 28.904C91.8972 29.24 91.7892 29.528 91.5252 29.768C89.7732 31.376 87.5892 32.18 84.9732 32.18ZM114.519 32C114.111 32 113.775 31.868 113.511 31.604C113.247 31.34 113.115 31.016 113.115 30.632V21.272C113.115 19.784 112.827 18.56 112.251 17.6C111.699 16.64 110.931 15.92 109.947 15.44C108.987 14.96 107.895 14.72 106.671 14.72C105.495 14.72 104.427 14.948 103.467 15.404C102.531 15.86 101.787 16.484 101.235 17.276C100.683 18.068 100.407 18.968 100.407 19.976H98.4265C98.4745 18.464 98.8825 17.12 99.6505 15.944C100.419 14.744 101.439 13.808 102.711 13.136C103.983 12.44 105.399 12.092 106.959 12.092C108.663 12.092 110.187 12.452 111.531 13.172C112.875 13.868 113.931 14.9 114.699 16.268C115.491 17.636 115.887 19.304 115.887 21.272V30.632C115.887 31.016 115.755 31.34 115.491 31.604C115.227 31.868 114.903 32 114.519 32ZM99.0385 32C98.6065 32 98.2585 31.88 97.9945 31.64C97.7545 31.376 97.6345 31.04 97.6345 30.632V13.712C97.6345 13.28 97.7545 12.944 97.9945 12.704C98.2585 12.44 98.6065 12.308 99.0385 12.308C99.4465 12.308 99.7705 12.44 100.011 12.704C100.275 12.944 100.407 13.28 100.407 13.712V30.632C100.407 31.04 100.275 31.376 100.011 31.64C99.7705 31.88 99.4465 32 99.0385 32ZM99.0385 23.972C98.6065 23.972 98.2585 23.84 97.9945 23.576C97.7545 23.312 97.6345 22.976 97.6345 22.568V5.288C97.6345 4.856 97.7545 4.52 97.9945 4.28C98.2585 4.016 98.6065 3.884 99.0385 3.884C99.4465 3.884 99.7705 4.016 100.011 4.28C100.275 4.52 100.407 4.856 100.407 5.288V22.568C100.407 22.976 100.275 23.312 100.011 23.576C99.7705 23.84 99.4465 23.972 99.0385 23.972ZM130.926 32.18C128.982 32.18 127.254 31.76 125.742 30.92C124.254 30.056 123.078 28.868 122.214 27.356C121.374 25.844 120.954 24.116 120.954 22.172C120.954 20.204 121.35 18.476 122.142 16.988C122.958 15.476 124.074 14.288 125.49 13.424C126.906 12.56 128.538 12.128 130.386 12.128C132.21 12.128 133.794 12.548 135.138 13.388C136.506 14.204 137.562 15.344 138.306 16.808C139.05 18.272 139.422 19.94 139.422 21.812C139.422 22.196 139.302 22.508 139.062 22.748C138.822 22.964 138.51 23.072 138.126 23.072H122.826V20.768H138.414L136.866 21.884C136.89 20.492 136.638 19.244 136.11 18.14C135.582 17.036 134.826 16.172 133.842 15.548C132.882 14.924 131.73 14.612 130.386 14.612C129.018 14.612 127.818 14.936 126.786 15.584C125.754 16.232 124.95 17.132 124.374 18.284C123.822 19.412 123.546 20.708 123.546 22.172C123.546 23.636 123.858 24.932 124.482 26.06C125.13 27.188 126.006 28.076 127.11 28.724C128.214 29.372 129.486 29.696 130.926 29.696C131.79 29.696 132.654 29.552 133.518 29.264C134.406 28.952 135.114 28.568 135.642 28.112C135.906 27.896 136.206 27.788 136.542 27.788C136.878 27.764 137.166 27.848 137.406 28.04C137.718 28.328 137.874 28.64 137.874 28.976C137.898 29.312 137.766 29.6 137.478 29.84C136.686 30.512 135.678 31.076 134.454 31.532C133.23 31.964 132.054 32.18 130.926 32.18ZM145.263 19.868C145.335 18.38 145.719 17.048 146.415 15.872C147.135 14.696 148.059 13.772 149.187 13.1C150.339 12.428 151.611 12.092 153.003 12.092C154.107 12.092 154.959 12.248 155.559 12.56C156.159 12.872 156.387 13.328 156.243 13.928C156.147 14.288 155.979 14.528 155.739 14.648C155.523 14.768 155.247 14.816 154.911 14.792C154.599 14.768 154.239 14.744 153.831 14.72C152.487 14.6 151.287 14.744 150.231 15.152C149.199 15.536 148.371 16.136 147.747 16.952C147.147 17.768 146.847 18.74 146.847 19.868H145.263ZM145.479 32C145.047 32 144.711 31.88 144.471 31.64C144.231 31.4 144.111 31.064 144.111 30.632V13.676C144.111 13.244 144.231 12.908 144.471 12.668C144.711 12.428 145.047 12.308 145.479 12.308C145.911 12.308 146.247 12.428 146.487 12.668C146.727 12.908 146.847 13.244 146.847 13.676V30.632C146.847 31.064 146.727 31.4 146.487 31.64C146.247 31.88 145.911 32 145.479 32Z" fill="#C06C84"/>
</svg>
