<svg width="628" height="587" viewBox="0 0 628 587" fill="none" xmlns="http://www.w3.org/2000/svg">
<g opacity="0.2">
<g clip-path="url(#clip0)">
<path d="M882.312 586.36C903.903 505.618 884.276 420.699 836.613 359.382L427.43 466.828L816.218 335.971C623.066 146.535 312.625 324.711 375.844 585.523L882.312 586.36Z" fill="#E6E6E6"/>
<path d="M179.497 301.7C242.721 301.7 293.975 250.446 293.975 187.221C293.975 123.996 242.721 72.7419 179.497 72.7419C116.272 72.7419 65.0176 123.996 65.0176 187.221C65.0176 250.446 116.272 301.7 179.497 301.7Z" fill="#E6E6E6"/>
<path d="M332.135 229.155H248.686C242.991 196.234 242.991 162.579 248.686 129.658H332.135C322.734 162.158 322.734 196.656 332.135 229.155Z" fill="#FF6584"/>
<path d="M313.619 156.608H262.839C261.962 156.608 261.252 155.466 261.252 154.055C261.252 152.645 261.962 151.503 262.839 151.503H313.619C314.495 151.503 315.206 152.645 315.206 154.055C315.206 155.466 314.495 156.608 313.619 156.608Z" fill="white"/>
<path d="M313.619 180.285H262.839C261.962 180.285 261.252 179.143 261.252 177.733C261.252 176.322 261.962 175.18 262.839 175.18H313.619C314.495 175.18 315.206 176.322 315.206 177.733C315.206 179.143 314.495 180.285 313.619 180.285Z" fill="white"/>
<path d="M72.8447 128.184H180.354C187.69 85.7707 187.69 42.413 180.354 0H72.8447C84.9565 41.8696 84.9565 86.3141 72.8447 128.184Z" fill="#00577F"/>
<path d="M163.391 37.3465H97.9702C96.8412 37.3465 95.9258 35.8759 95.9258 34.0584C95.9258 32.2409 96.8412 30.7702 97.9702 30.7702H163.391C164.52 30.7702 165.436 32.2409 165.436 34.0584C165.436 35.8758 164.52 37.3465 163.391 37.3465Z" fill="white"/>
<path d="M163.391 67.8504H97.9702C96.8412 67.8504 95.9258 66.3797 95.9258 64.5623C95.9258 62.7448 96.8412 61.2741 97.9702 61.2741H163.391C164.52 61.2741 165.436 62.7448 165.436 64.5623C165.436 66.3797 164.52 67.8504 163.391 67.8504Z" fill="white"/>
<path d="M163.391 98.3542H97.9702C96.8412 98.3542 95.9258 96.8836 95.9258 95.0661C95.9258 93.2487 96.8412 91.778 97.9702 91.778H163.391C164.52 91.778 165.436 93.2487 165.436 95.0661C165.436 96.8836 164.52 98.3542 163.391 98.3542Z" fill="white"/>
<path d="M1.8252 327.462H109.334C116.671 285.049 116.671 241.691 109.334 199.278H1.8252C13.9369 241.148 13.9369 285.592 1.8252 327.462Z" fill="#00577F"/>
<path d="M92.3718 236.625H26.9507C25.8217 236.625 24.9062 235.154 24.9062 233.337C24.9062 231.519 25.8216 230.048 26.9507 230.048H92.3718C93.5008 230.048 94.4162 231.519 94.4162 233.337C94.4162 235.154 93.5008 236.625 92.3718 236.625Z" fill="white"/>
<path d="M92.3718 267.129H26.9507C25.8217 267.129 24.9062 265.658 24.9062 263.84C24.9062 262.023 25.8216 260.552 26.9507 260.552H92.3718C93.5008 260.552 94.4162 262.023 94.4162 263.84C94.4162 265.658 93.5008 267.129 92.3718 267.129Z" fill="white"/>
<path d="M565.524 550.476L581.027 524.453L559.12 515.691L557.113 518.255C552.096 524.666 547.617 538.21 541.524 543.476" fill="#FFB8B8"/>
<path d="M572.953 554.585L572.196 577.184C572.125 579.318 571.222 581.338 569.68 582.815C568.139 584.291 566.08 585.105 563.946 585.084L546.852 584.915H527.575C527.575 584.915 491.648 584.039 489.896 570.018C489.311 565.345 493.303 562.23 498.885 560.152C512.297 555.204 524.85 548.183 536.087 539.346C537.419 538.28 539.01 537.587 540.698 537.336C542.386 537.086 544.11 537.286 545.695 537.919L567.947 546.894C569.469 547.508 570.766 548.575 571.661 549.951C572.557 551.326 573.008 552.944 572.953 554.585Z" fill="#2F2E41"/>
<path d="M532.816 550.147C533.784 550.147 534.568 549.363 534.568 548.395C534.568 547.427 533.784 546.642 532.816 546.642C531.848 546.642 531.063 547.427 531.063 548.395C531.063 549.363 531.848 550.147 532.816 550.147Z" fill="white"/>
<path d="M538.445 544.036C539.413 544.036 540.197 543.252 540.197 542.284C540.197 541.316 539.413 540.531 538.445 540.531C537.477 540.531 536.692 541.316 536.692 542.284C536.692 543.252 537.477 544.036 538.445 544.036Z" fill="white"/>
<path d="M607.314 147.663L616.953 174.827L642.365 159.931C642.365 159.931 629.221 144.158 630.097 135.395L607.314 147.663Z" fill="#FFB8B8"/>
<path d="M610.381 151.606C623.931 151.606 634.916 140.621 634.916 127.071C634.916 113.521 623.931 102.536 610.381 102.536C596.83 102.536 585.846 113.521 585.846 127.071C585.846 140.621 596.83 151.606 610.381 151.606Z" fill="#FFB8B8"/>
<path d="M645.869 156.426L640.73 157.863C640.73 157.863 630.097 157.302 624.839 165.188C619.582 173.074 615.692 171.274 615.692 171.274L594.17 203.743C594.17 203.743 587.16 216.887 589.789 231.784C592.418 246.68 601.18 267.71 601.18 267.71C601.18 267.71 657.261 272.968 659.013 270.339C660.766 267.71 659.013 250.185 659.013 250.185L666.023 172.198C666.023 172.198 658.137 159.054 653.756 159.054C650.928 158.959 648.189 158.046 645.869 156.426Z" fill="#00577F"/>
<path d="M663.394 265.081C663.394 265.081 648.498 264.205 642.364 265.958C636.23 267.71 599.427 265.958 599.427 265.958L588.912 331.677L554.738 517.443L591.541 531.463L635.354 427.189L640.611 442.085L707.207 514.814L742.257 499.042L684.424 402.654L666.023 335.182C666.023 335.182 677.414 296.627 661.642 272.968L663.394 265.081Z" fill="#2F2E41"/>
<path opacity="0.2" d="M603.76 334.017L602.105 334.594L634.527 427.477L636.182 426.9L603.76 334.017Z" fill="black"/>
<path d="M606.878 92.0208C603.157 92.0208 601.987 95.3242 602.694 98.7892C606.734 118.188 605.145 138.338 598.113 156.864H620.625L624.839 146.89L626.472 156.864H655.946V146.805C665.866 106.059 644.83 86.1752 606.878 92.0208Z" fill="#2F2E41"/>
<path d="M603.188 92.8971H600.926C598.716 92.8971 596.527 93.3324 594.485 94.1783C592.442 95.0242 590.587 96.2641 589.024 97.8271C587.461 99.3901 586.221 101.246 585.375 103.288C584.529 105.33 584.094 107.519 584.094 109.729V115.68L598.781 113.889L599.866 109.546L600.888 113.632L620.02 111.298V109.729C620.02 107.519 619.585 105.33 618.739 103.288C617.893 101.246 616.653 99.3901 615.09 97.8271C613.527 96.2641 611.672 95.0242 609.629 94.1783C607.587 93.3324 605.398 92.8971 603.188 92.8971Z" fill="#2F2E41"/>
<path opacity="0.2" d="M640.277 201.363L631.515 266.206L622.324 266.685L640.277 201.363Z" fill="black"/>
<path d="M631.217 279.433L613.807 331.664C613.807 331.664 577.536 372.287 597.848 372.287C618.16 372.287 628.315 336.016 628.315 336.016L652.98 283.786L631.217 279.433Z" fill="#FFB8B8"/>
<path d="M649.352 161.19C649.352 161.19 661.153 156.081 668.317 168.942C675.482 181.802 672.566 230.83 671.115 238.084C669.664 245.339 659.508 290.315 659.508 290.315L624.688 283.06C624.688 283.06 621.786 262.749 630.491 264.199L649.352 161.19Z" fill="#00577F"/>
<path d="M888 584.712H0V586.952H888V584.712Z" fill="#3F3D56"/>
</g>
</g>
<defs>
<clipPath id="clip0">
<rect width="891.048" height="586.952" fill="white"/>
</clipPath>
</defs>
</svg>
